<?xml version="1.0" encoding="utf-8"?>
<!-- Generator: Adobe Illustrator 27.5.0, SVG Export Plug-In . SVG Version: 6.00 Build 0)  -->
<svg version="1.1" id="Capa_2" xmlns="http://www.w3.org/2000/svg" xmlns:xlink="http://www.w3.org/1999/xlink" x="0px" y="0px"
	 viewBox="0 0 2122 2122" style="enable-background:new 0 0 2122 2122;" xml:space="preserve">
<path style="fill:#AD173A;" d="M1130.978,1645.329c-0.027-1.296-0.137-2.564-0.301-3.817c-2.589-19.771-21.114-34.435-19.961-54.448
	c0.729-12.642,9.976-22.98,10.584-35.64c0.619-12.864-6.761-24.925-16.584-32.726c-10.953-8.697-23.822-14.453-37.71-18.13
	c-13.412-3.552-27.772-5.167-42.312-5.533c0.996-0.533,1.959-1.13,2.945-1.685c19.762-11.124,37.232-26.507,47.166-46.697
	c3.976-8.081,6.514-17.522,7.308-27.191c0.916-11.137-0.523-22.555-4.721-32.56c-1.399-3.334-3.121-6.494-5.158-9.446
	c-3.461-5.015-7.815-9.42-13.256-12.832c-6.049-3.794-12.73-5.337-19.577-6.164c-14.02-1.694-28.748-0.346-40.246-8.883
	c-10.167-7.549-13.733-20.953-23.981-28.411c-10.413-7.578-24.546-8.031-36.458-4.102c-7.037,2.321-13.682,5.539-19.967,9.477
	c-0.507-9.822-2.348-19.509-5.853-28.762c-2.983-7.875-7.727-15.62-13.657-22.468c-2.742-3.166-5.725-6.139-8.939-8.829
	c-13.538-11.328-30.811-17.74-48.144-13.147c-5.091,1.349-9.519,3.793-13.616,6.757c-5.199,3.762-9.86,8.366-14.612,12.724
	c-6.973,6.394-14.16,12.229-23.611,13.955c-12.458,2.274-24.685-4.273-37.132-1.877c-8.37,1.611-15.532,6.576-20.972,13.029
	c-2.779,3.297-5.138,6.958-6.917,10.808c-2.936,6.353-4.968,13.021-6.383,19.873c-0.376,1.819-0.752,3.638-1.033,5.485
	c-0.5,3.303-0.883,6.639-1.099,10.017c-4.492-4.846-9.335-9.321-14.502-13.332c-4.872-3.782-10.04-7.137-15.506-9.952
	c-3.518-1.811-7.15-3.417-10.911-4.753c-27.053-9.612-66.152-3.147-79.65,25.202c-0.197,0.414-0.332,0.837-0.51,1.253
	c-1.676,3.914-2.573,7.95-2.994,12.055c-0.237,2.316-0.348,4.65-0.355,6.996c-0.024,8.468,1.015,17.053,0.328,25.248
	c-0.456,5.426-1.662,10.683-4.501,15.609c-6.016,10.438-17.919,15.612-24.428,25.592c-0.333,0.51-0.718,0.975-1.021,1.512
	c-0.663,1.178-1.199,2.403-1.702,3.637c-4.283,10.525-2.884,22.866,1.841,33.05c3.902,8.41,9.219,15.988,15.435,22.956
	c10.297,11.544,23.235,21.282,37.437,29.58c2.153,1.258,4.341,2.471,6.542,3.666c0.682,0.37,1.34,0.771,2.025,1.134
	c-0.76-0.029-1.52-0.055-2.281-0.075c-0.453-0.012-0.91,0.013-1.363,0.005c-20.898-0.397-42.374,2.96-60.92,12.119
	c-5.702,2.816-11.157,6.122-16.194,10.101c-9.076,7.171-16.931,17.406-22.036,28.781c-1.356,3.021-2.532,6.11-3.462,9.259
	c-1.729,5.855-2.635,11.86-2.591,17.81c0.024,3.261,0.303,6.502,0.951,9.686c1.083,5.322,3.056,10.49,6.122,15.32
	c11.663,18.37,37.545,20.493,47.525,39.328c5.929,11.189,3.379,24.823,9.419,35.966c3.805,7.017,10.082,12.17,17.265,15.457
	c4.405,2.016,9.148,3.335,13.879,3.936c22.189,2.817,44.679-3.275,66.131-13.56c-0.693,0.971-1.378,1.949-2.055,2.934
	c-9.208,13.414-16.742,28.403-20.898,44.073c-2.931,11.055-4.196,22.445-3.121,33.873c2.689,28.583,25.035,61.313,56.432,61.602
	c21.759,0.2,37.614-20.367,58.847-18.501c12.614,1.109,22.67,10.662,35.306,11.651c12.84,1.005,25.117-6.009,33.21-15.593
	c6.961-8.244,12.22-17.675,16.14-27.878c5.107,9.832,11.622,18.825,19.776,26.393c21.044,19.53,59.512,29.058,83.123,8.362
	c16.364-14.344,14.491-40.245,31.571-52.995c10.148-7.576,24.011-7.147,34.095-14.826c0.6-0.457,1.113-0.994,1.674-1.488
	c9.014-7.943,13.038-20.458,12.711-32.263c-0.331-11.933-3.183-23.562-7.816-34.795c14.654,4.976,30.038,7.249,45.353,5.342
	C1099.589,1700.04,1131.632,1676.72,1130.978,1645.329z"/>
<path style="fill:#C01C49;" d="M1064.215,1629.075c-0.358-17.142-16.931-29.142-15.965-45.909c0.574-9.962,7.86-18.107,8.34-28.083
	c0.487-10.136-5.327-19.639-13.067-25.786c-16.965-13.472-39.733-18.058-63.052-18.646c16.529-8.848,31.266-21.42,39.484-38.122
	c9.987-20.298,8.487-51.488-12.471-64.634c-14.525-9.111-33.653-1.844-47.137-11.856c-8.011-5.948-10.821-16.51-18.896-22.386
	c-8.205-5.971-19.34-6.328-28.727-3.232c-5.544,1.828-10.78,4.364-15.732,7.468c-0.4-7.74-1.85-15.372-4.612-22.663
	c-8.012-21.155-31.824-41.355-55.738-35.019c-16.574,4.392-24.324,23.329-40.846,26.346c-9.815,1.792-19.45-3.367-29.257-1.48
	c-9.965,1.918-17.828,9.81-21.975,18.783c-4.026,8.71-6.088,18.116-6.709,27.874c-9.026-9.737-19.79-17.666-32.243-22.091
	c-21.316-7.574-52.123-2.479-62.76,19.857c-7.371,15.48,2.058,33.641-6.329,48.192c-4.982,8.645-15.148,12.656-20.052,21.356
	c-4.983,8.84-4.051,19.942,0.109,28.908c9.18,19.785,27.66,34.16,48.41,45.177c-0.599-0.022-1.197-0.043-1.797-0.059
	c-21.857-0.584-44.679,3.957-61.835,17.512c-17.75,14.024-29.819,42.823-16.559,63.709c9.19,14.475,29.583,16.147,37.447,30.988
	c4.671,8.817,2.662,19.56,7.422,28.339c4.836,8.921,14.734,14.036,24.539,15.28c17.483,2.22,35.204-2.58,52.107-10.684
	c-0.546,0.766-1.087,1.536-1.619,2.312c-12.374,18.026-20.973,39.649-18.925,61.417c2.118,22.522,19.726,48.311,44.464,48.539
	c17.145,0.158,29.637-16.048,46.367-14.577c9.94,0.873,17.863,8.401,27.819,9.18c10.116,0.792,19.791-4.735,26.167-12.286
	c5.485-6.496,9.629-13.927,12.718-21.966c4.023,7.747,9.156,14.833,15.582,20.796c16.581,15.388,46.891,22.896,65.496,6.589
	c12.893-11.302,11.418-31.71,24.876-41.757c7.996-5.969,18.919-5.631,26.865-11.681c8.073-6.148,11.609-16.714,11.335-26.594
	c-0.26-9.403-2.508-18.566-6.159-27.417c11.547,3.92,23.668,5.711,35.736,4.209
	C1039.483,1672.183,1064.731,1653.809,1064.215,1629.075z"/>
<path style="fill:#CF285C;" d="M992.482,1611.61c-0.254-12.185-12.035-20.715-11.348-32.633c0.408-7.081,5.587-12.871,5.928-19.962
	c0.346-7.205-3.787-13.96-9.289-18.33c-12.059-9.576-28.243-12.836-44.819-13.253c11.749-6.29,22.225-15.226,28.066-27.099
	c7.098-14.428,6.032-36.599-8.865-45.944c-10.325-6.476-23.921-1.311-33.506-8.427c-5.695-4.228-7.691-11.735-13.432-15.912
	c-5.832-4.244-13.748-4.498-20.42-2.297c-3.941,1.3-7.663,3.102-11.183,5.308c-0.284-5.501-1.315-10.927-3.278-16.109
	c-5.695-15.038-22.621-29.396-39.62-24.892c-11.781,3.122-17.291,16.583-29.035,18.727c-6.977,1.274-13.826-2.393-20.797-1.051
	c-7.083,1.363-12.673,6.973-15.621,13.351c-2.862,6.192-4.327,12.878-4.769,19.814c-6.415-6.921-14.067-12.558-22.919-15.703
	c-15.153-5.384-37.052-1.763-44.611,14.115c-5.24,11.004,1.462,23.912-4.499,34.256c-3.542,6.144-10.768,8.996-14.254,15.18
	c-3.542,6.284-2.879,14.175,0.078,20.549c6.525,14.064,19.661,24.282,34.411,32.113l-1.277-0.042
	c-15.537-0.415-31.76,2.812-43.954,12.448c-12.617,9.969-21.196,30.44-11.771,45.286c6.532,10.289,21.028,11.478,26.618,22.027
	c3.321,6.267,1.892,13.903,5.276,20.144c3.438,6.341,10.474,9.977,17.444,10.862c12.428,1.578,25.024-1.834,37.039-7.595
	c-0.388,0.544-0.772,1.092-1.151,1.643c-8.796,12.813-14.908,28.183-13.452,43.657c1.506,16.01,14.022,34.341,31.607,34.503
	c12.187,0.112,21.067-11.407,32.96-10.363c7.065,0.621,12.697,5.972,19.774,6.526c7.191,0.563,14.068-3.365,18.601-8.733
	c3.898-4.618,6.844-9.9,9.04-15.614c2.86,5.507,6.509,10.544,11.077,14.782c11.786,10.938,33.331,16.275,46.556,4.684
	c9.165-8.034,8.116-22.54,17.683-29.682c5.684-4.243,13.448-4.003,19.097-8.304c5.739-4.37,8.252-11.88,8.057-18.903
	c-0.186-6.684-1.783-13.197-4.378-19.489c8.207,2.787,16.824,4.06,25.402,2.992C974.901,1642.253,992.848,1629.192,992.482,1611.61z
	"/>
<path style="fill:#DC316E;" d="M921.168,1594.248c-0.151-7.257-7.168-12.337-6.759-19.435c0.243-4.217,3.327-7.666,3.531-11.889
	c0.206-4.291-2.255-8.314-5.532-10.917c-7.182-5.703-16.821-7.645-26.693-7.893c6.998-3.746,13.236-9.068,16.715-16.139
	c4.228-8.593,3.593-21.798-5.279-27.363c-6.149-3.857-14.247-0.781-19.956-5.019c-3.391-2.518-4.581-6.989-7.999-9.477
	c-3.473-2.528-8.188-2.679-12.161-1.368c-2.347,0.774-4.564,1.847-6.66,3.161c-0.169-3.277-0.783-6.508-1.952-9.594
	c-3.392-8.956-13.473-17.507-23.597-14.825c-7.017,1.859-10.298,9.876-17.292,11.153c-4.155,0.758-8.234-1.425-12.386-0.626
	c-4.218,0.812-7.547,4.153-9.302,7.952c-1.705,3.687-2.578,7.669-2.841,11.8c-3.821-4.122-8.378-7.479-13.649-9.352
	c-9.024-3.206-22.067-1.05-26.569,8.407c-3.121,6.554,0.871,14.242-2.68,20.401c-2.109,3.66-6.413,5.358-8.489,9.041
	c-2.11,3.743-1.715,8.443,0.046,12.238c3.886,8.376,11.71,14.462,20.494,19.126l-0.761-0.026
	c-9.253-0.247-18.915,1.676-26.177,7.414c-7.515,5.937-12.624,18.129-7.011,26.971c3.891,6.128,12.524,6.837,15.853,13.119
	c1.978,3.733,1.127,8.281,3.142,11.998c2.048,3.777,6.238,5.941,10.389,6.469c7.401,0.94,14.904-1.092,22.059-4.523l-0.685,0.978
	c-5.238,7.632-8.878,16.786-8.012,26.001c0.898,9.534,8.351,20.452,18.824,20.548c7.258,0.067,12.547-6.793,19.63-6.171
	c4.208,0.37,7.562,3.557,11.777,3.886c4.283,0.335,8.379-2.004,11.078-5.201c2.322-2.75,4.077-5.896,5.384-9.3
	c1.703,3.28,3.876,6.28,6.597,8.804c7.019,6.515,19.851,9.693,27.727,2.789c5.458-4.784,4.834-13.424,10.531-17.678
	c3.385-2.527,8.009-2.384,11.373-4.946c3.418-2.603,4.915-7.075,4.799-11.258c-0.11-3.98-1.062-7.86-2.607-11.606
	c4.888,1.659,10.02,2.418,15.129,1.782C910.698,1612.498,921.386,1604.719,921.168,1594.248z"/>
<path style="fill:#686C41;" d="M1726.832,1504.68c-41.688-0.667-83.427,13.74-115.9,39.883
	c53.498,14.053,106.076,31.37,156.896,52.903c7.84,3.322-2.41,11.175-7.88,8.858c-50.518-21.406-102.821-38.418-155.882-52.346
	c0.01,2.834,1.661,5.581,3.263,8.026c28.525,43.55,58.596,87.329,99.811,119.136c41.214,31.807,95.935,50.282,146.146,36.529
	c17.85-4.889,35.228-14.25,45.618-29.566c15.359-22.641,12.178-53.941-0.737-78.059
	C1866.424,1550.763,1793.582,1505.748,1726.832,1504.68z"/>
<path style="fill:#686C41;" d="M1520.668,1656.133c3.303,3.933-7.255,8.106-10.16,4.647c-14.188-16.896-29.019-33.252-44.789-48.69
	c-21.286-20.839-44.213-39.318-68.555-55.588c-0.149,0.193-0.334,0.354-0.46,0.568l-0.51,1.113
	c-0.806,2.359-0.189,5.112,0.464,7.597c11.525,43.891,24.264,88.398,49.528,126.094c25.263,37.696,65.379,68.109,110.687,70.638
	c16.107,0.898,33.061-2.029,45.887-11.813c18.961-14.463,24.994-41.214,20.994-64.724c-9.831-57.781-57.581-115.148-112.457-134.504
	c-33.343-11.761-70.675-11.738-104.053-0.107C1449.762,1580.488,1487.224,1616.305,1520.668,1656.133z"/>
<path style="fill:#432918;" d="M1767.828,1597.465c-50.821-21.533-103.399-38.85-156.896-52.903
	c-58.7-15.419-118.51-26.879-178.369-35.518c27.046-4.588,53.62-11.585,79.264-21.601c8.063-3.149,15.988-6.613,23.804-10.304
	c25.789-12.179,50.261-27.099,73.498-43.623c19.27-13.703,37.752-28.474,55.848-43.686c6.053-5.088-3.444-8.053-7.554-4.598
	c-39.711,33.382-81.693,64.156-128.183,86.138c-20.256,9.578-41.356,17.509-63.516,23.223c-19.958,5.147-40.276,8.509-60.756,10.685
	c-68.307-8.88-137.17-14.098-206.116-15.641c30.259-13.3,59.102-29.739,85.264-50.034c5.858-4.544,11.529-9.299,17.101-14.162
	c22.462-19.601,42.712-41.614,61.191-65.038c14.328-18.162,27.705-37.053,40.599-56.252c1.729-2.574-1.502-4.365-3.621-4.604
	c-3.044-0.343-6.423,1.101-8.129,3.64c-28.439,42.342-59.749,82.741-97.482,116.329c-17.5,15.579-36.375,29.701-57,41.857
	c-18.42,10.856-37.825,19.959-57.662,27.909c-50.539-0.617-101.093,0.729-151.474,4.07c-0.986,0.555-1.948,1.151-2.945,1.685
	c14.54,0.366,28.9,1.982,42.312,5.533c4.144-0.179,8.288-0.361,12.433-0.511c35.092,15.775,68.003,34.85,98.343,57.467
	c24.782,18.474,47.855,39.302,68.961,62.675c14.818,16.409,28.643,33.677,41.788,51.448c2.67,3.61,13.27-0.443,10.16-4.647
	c-32.689-44.194-70.135-84.206-113.784-116.904c-13.946-10.448-28.514-20.164-43.778-29.012
	c-13.502-7.827-27.375-14.977-41.483-21.637c28.825-0.741,57.652-0.87,86.435-0.347c36.356,0.66,72.75,2.302,109.088,4.932
	c36.134,13.869,70.279,31.274,101.994,52.471c24.342,16.27,47.269,34.749,68.555,55.588c15.77,15.438,30.601,31.794,44.789,48.69
	c2.905,3.459,13.463-0.714,10.16-4.647c-33.444-39.828-70.906-75.645-113.425-104.768c-17.064-11.688-34.918-22.329-53.691-31.669
	c-9.514-4.734-19.184-9.141-28.958-13.308c84.854,7.46,169.25,20.618,251.932,40.616c9.202,2.226,18.379,4.568,27.54,6.973
	c53.06,13.928,105.363,30.941,155.882,52.346C1765.418,1608.641,1775.668,1600.787,1767.828,1597.465z"/>
<path style="fill:#686C41;" d="M1298.692,1666.999c3.11,4.204-7.49,8.257-10.16,4.647c-13.145-17.771-26.969-35.039-41.788-51.448
	c-21.106-23.373-44.179-44.2-68.961-62.675c-0.068,1.505,0.111,3.068,0.347,4.551c7.141,44.813,15.43,90.359,36.853,130.362
	s58.345,74.224,103.183,81.207c15.94,2.483,33.1,1.241,46.828-7.231c20.295-12.523,28.936-38.549,27.273-62.338
	c-4.087-58.469-45.947-120.264-98.648-144.936c-33.488-15.678-72.598-18.996-108.25-9.184c-0.153,0.043-0.309,0.095-0.463,0.139
	C1228.556,1582.793,1266.002,1622.805,1298.692,1666.999z"/>
<path style="fill:#686C41;" d="M1071.1,1703.586c-15.315,1.906-30.699-0.367-45.353-5.342c4.633,11.233,7.486,22.862,7.816,34.795
	c0.327,11.805-3.696,24.32-12.711,32.263c19.166,19.621,42.909,34.2,69.754,38.97c15.883,2.822,33.066,1.947,46.972-6.23
	c20.557-12.088,29.752-37.923,28.597-61.743c-1.585-32.693-14.942-66.66-35.498-94.787c0.164,1.252,0.274,2.521,0.301,3.817
	C1131.632,1676.72,1099.589,1700.04,1071.1,1703.586z"/>
<path style="fill:#686C41;" d="M1664.977,1389.83c-18.096,15.212-36.578,29.983-55.848,43.686
	c-23.237,16.525-47.709,31.444-73.498,43.623c32.229,17.435,70.662,23.119,106.548,15.697
	c56.984-11.786,112.026-62.195,129.554-118.125c7.131-22.757,4.758-50.076-12.082-66.962
	c-11.391-11.423-27.796-16.608-43.877-17.888c-45.236-3.599-89.084,21.133-119.195,55.081
	c-30.112,33.948-48.731,76.334-66.065,118.271c-0.981,2.374-1.964,5.019-1.484,7.466l0.21,0.691
	c46.49-21.982,88.472-52.756,128.183-86.138C1661.533,1381.776,1671.03,1384.741,1664.977,1389.83z"/>
<path style="fill:#686C41;" d="M1384.27,1254.903c-11.434,1.423-22.919-0.273-33.859-3.988c3.459,8.387,5.589,17.068,5.836,25.977
	c0.26,9.361-3.09,19.372-10.739,25.197c-7.528,5.732-17.878,5.413-25.454,11.068c-9.697,7.239-11.223,20.147-16.764,30.629
	c-4.63,23.063-7.264,46.681-9.583,70.088c-0.184,1.857-0.313,3.845,0.069,5.641c37.733-33.588,69.043-73.987,97.482-116.329
	c1.706-2.539,5.085-3.983,8.129-3.64c2.119,0.239,5.35,2.031,3.621,4.604c-12.895,19.199-26.271,38.091-40.599,56.252
	c-18.479,23.424-38.729,45.437-61.191,65.038c0.145,0.032,0.291,0.072,0.435,0.103c36.17,7.684,75.015,2.055,107.516-15.579
	c51.146-27.75,89.274-91.916,89.89-150.524c0.25-23.846-9.917-49.314-30.917-60.614c-13.488-7.258-29.665-7.782-44.761-4.891
	c2.942,5.453,5.46,11.087,5.593,17.477C1429.461,1234.847,1405.539,1252.256,1384.27,1254.903z"/>
<path style="fill:#686C41;" d="M1070.402,1318.352c-1.94-20.625,6.206-41.113,17.931-58.192c0.505-0.735,1.017-1.465,1.534-2.191
	c-12.867,6.17-26.233,10.249-39.581,10.551c-0.759,2.436-1.485,4.879-2.141,7.332c-7.199,26.892-9.098,54.688-8.744,82.607
	c6.847,0.827,13.529,2.37,19.577,6.164c5.441,3.412,9.795,7.818,13.256,12.832c5.052-8.06,9.882-16.272,14.514-24.613
	C1077.499,1343.725,1071.549,1330.543,1070.402,1318.352z"/>
<path style="fill:#686C41;" d="M1182.457,1359.169c-9.259-0.893-16.7-7.823-25.993-8.639c-15.852-1.393-27.688,13.961-43.932,13.812
	c-6.648-0.061-12.726-2.119-18.107-5.454c-5.367,9.524-11.055,18.866-17.032,28.014c4.198,10.005,5.637,21.423,4.721,32.56
	c26.491-4.218,51.932-15.14,73-31.762C1165.248,1379.704,1174.38,1369.982,1182.457,1359.169z"/>
<path style="fill:#432918;" d="M1086.748,1352.843c-4.632,8.341-9.462,16.553-14.514,24.613c2.037,2.952,3.759,6.112,5.158,9.446
	c5.978-9.148,11.666-18.49,17.032-28.014C1091.672,1357.182,1089.097,1355.159,1086.748,1352.843z"/>
<path style="fill:#432918;" d="M1009.631,973.307c0.177-0.079,0.359-0.151,0.509-0.267c13.137-10.218,27.232-19.022,42.383-25.87
	c0.083,0.099,0.16,0.206,0.279,0.263c17.388,8.399,36.109,13.063,55.166,15.766c1.675,0.237,2.476-3.679,0.852-3.909
	c-17.786-2.522-35.368-6.754-51.747-14.217c0.173-0.072,0.336-0.163,0.509-0.235c15.556-6.438,31.892-10.563,48.456-13.365
	c-0.044-0.191-0.142-0.36-0.177-0.555c-0.154-0.847-0.143-1.69-0.129-2.531c-16.655,2.843-33.065,6.985-48.769,13.334
	c-15.528,6.278-29.929,14.787-43.433,24.616c12.204-21.37,25.199-42.317,39.025-62.697c10.493-9.168,21.633-17.544,33.497-24.792
	c0.162,0.265,0.365,0.479,0.649,0.539c18.894,3.987,38.188,4.028,57.336,2.084c1.683-0.171,1.523-4.165-0.109-3.999
	c-17.752,1.802-35.713,1.917-53.289-1.334c3.672-2.116,7.367-4.194,11.18-6.076c17.036-8.407,35.087-14.286,53.517-18.693
	c-0.102-0.316-0.276-0.598-0.352-0.925c-0.182-0.784-0.199-1.572-0.218-2.36c-19.532,4.652-38.68,10.952-56.653,19.996
	c-13.385,6.736-25.839,14.955-37.595,24.134c16.109-22.971,33.232-45.219,51.55-66.439c16.212-18.781,33.372-36.786,51.693-53.523
	c-1.15-0.742-2.224-1.609-3.17-2.654c-0.017-0.02-0.027-0.044-0.045-0.064c-26.233,23.8-50.126,50.175-72.209,77.94
	c2.166-8.602,3.89-17.293,5.072-26.06c0.002-0.036,0.02-0.07,0.016-0.106c0.945-7.031,1.527-14.112,1.702-21.239
	c9.428-16.363,15.45-34.257,19.601-52.634c0.373-1.65-3.465-2.767-3.827-1.167c-3.551,15.717-8.452,31.162-15.747,45.524
	c-0.269-14.4-2.097-28.687-4.91-42.804c-1.04,0.559-2.151,0.986-3.329,1.259c-0.472,0.11-0.948,0.079-1.422,0.136
	c3.281,16.476,5.243,33.186,4.853,50.031c-0.124,5.356-0.542,10.678-1.113,15.979c-11.114-12.898-19.861-27.582-27.173-42.956
	c-0.735-1.546-4.541-0.387-3.865,1.035c8.033,16.89,17.722,32.987,30.389,46.812c-1.542,11.665-3.951,23.205-7.169,34.564
	c-0.039,0.139,0.002,0.236,0.01,0.351c-8.958,11.582-17.625,23.374-25.987,35.331c-2.576,3.683-5.058,7.434-7.584,11.154
	c-0.391,0.343-0.804,0.659-1.194,1.004c-0.665,0.589-0.7,1.042-0.426,1.379c-3.502,5.19-6.954,10.414-10.357,15.672
	c2.912-15.394,4.513-30.974,4.285-46.672c10.309-15.268,17.547-32.217,23.03-49.777c0.504-1.615-3.232-3.036-3.721-1.47
	c-4.835,15.486-11.009,30.59-19.525,44.395c-0.767-15.86-3.29-31.513-6.984-46.923c-0.892,0.487-1.807,0.94-2.806,1.222
	c-0.766,0.217-1.547,0.248-2.323,0.329c4.002,16.683,6.686,33.664,7.118,50.857c0.508,20.181-2.123,40.177-6.635,59.815
	c-9.155,14.601-17.927,29.446-26.297,44.516c1.994-0.358,4.001-0.619,6.011-0.834
	C1008.568,975.235,1009.092,974.268,1009.631,973.307z"/>
<path style="fill:#EA566A;" d="M1163.763,772.251c7.393,4.774,18.481,3.336,26.661-4.059c9.451-8.545,11.419-21.77,4.396-29.539
	c-7.024-7.769-20.38-7.139-29.831,1.405c-9.427,8.523-11.401,21.698-4.441,29.475c0.018,0.019,0.027,0.044,0.045,0.064
	C1161.539,770.642,1162.613,771.508,1163.763,772.251z"/>
<path style="fill:#EF7E95;" d="M1155.337,851.368c2.517,7.773,12.8,12.024,23.696,9.499c11.339-2.627,18.956-11.553,17.014-19.938
	c-1.943-8.384-12.709-13.051-24.048-10.425c-10.279,2.382-17.419,9.94-17.232,17.578c0.02,0.788,0.036,1.576,0.218,2.36
	C1155.061,850.769,1155.235,851.052,1155.337,851.368z"/>
<path style="fill:#432918;" d="M936.674,969.696c4.424,11.041,8.193,22.324,11.083,33.857c1.536-1.167,3.049-2.377,4.613-3.49
	c-2.898-11.105-6.629-21.971-10.931-32.623c-0.774,0.58-1.559,1.146-2.457,1.558C938.238,969.338,937.451,969.496,936.674,969.696z"
	/>
<path style="fill:#EF7E95;" d="M914.474,958.325c5.622,8.744,14.567,13.337,22.199,11.371c0.777-0.2,1.564-0.358,2.308-0.699
	c0.898-0.411,1.683-0.978,2.457-1.558c7.093-5.317,8.93-17.239,3.829-28.372c-1.717-3.748-4.058-6.884-6.685-9.435
	c-4.856,7.067-10.148,13.817-15.818,20.131C920.103,952.729,917.272,955.509,914.474,958.325z"/>
<path style="fill:#432918;" d="M998.715,951.293c0.003-0.179-0.005-0.357-0.003-0.536c10.672-15.524,18.093-32.835,23.695-50.776
	c0.504-1.614-3.231-3.037-3.721-1.471c-4.931,15.793-11.237,31.198-20.018,45.224c-0.329-14.871-2.192-29.634-5.035-44.228
	c-0.924,0.463-1.879,0.867-2.908,1.105c-0.757,0.176-1.519,0.171-2.28,0.211c3.41,17.456,5.429,35.155,5.017,52.987
	c-0.097,4.203-0.36,8.388-0.716,12.56c-11.342-12.726-20.311-27.333-27.89-42.589c-0.73-1.469-4.195,0.524-3.442,2.039
	c8.235,16.576,18.125,32.264,30.825,45.77c-0.299,2.722-0.65,5.436-1.048,8.145c1.767-0.558,3.55-1.07,5.354-1.516
	C997.812,969.313,998.592,960.338,998.715,951.293z"/>
<path style="fill:#EF7E95;" d="M993.633,899.506c7.54-3.775,11.44-14.57,8.809-25.924c-2.953-12.745-12.986-21.307-22.409-19.123
	c-9.424,2.183-14.67,14.284-11.717,27.029c2.716,11.721,11.418,19.793,20.129,19.334c0.761-0.04,1.523-0.035,2.28-0.211
	C991.754,900.373,992.709,899.968,993.633,899.506z"/>
<path style="fill:#EA566A;" d="M1106.038,931.472c1.962,8.571,12.286,13.851,23.488,11.817
	c11.452-2.079,19.424-10.989,17.806-19.901c-1.618-8.912-12.214-14.451-23.666-12.372c-10.363,1.882-17.799,9.361-17.935,17.37
	c-0.014,0.841-0.025,1.684,0.129,2.531C1105.896,931.112,1105.994,931.281,1106.038,931.472z"/>
<path style="fill:#EA566A;" d="M1032.966,820.291c7.721-4.216,11.301-15.617,8-27.281c-3.681-13.012-14.488-21.347-24.137-18.617
	c-9.65,2.73-14.488,15.491-10.807,28.503c3.389,11.978,12.809,19.878,21.814,18.946c0.777-0.08,1.557-0.112,2.323-0.329
	C1031.159,821.23,1032.074,820.778,1032.966,820.291z"/>
<path style="fill:#432918;" d="M966.685,969.288c0.046-1.691-3.935-2.045-3.981-0.405c-0.237,8.603-0.891,17.202-2.086,25.713
	c1.453-0.915,2.91-1.807,4.382-2.673C965.941,984.427,966.476,976.868,966.685,969.288z"/>
<path style="fill:#432918;" d="M913.359,1004.451c-1.095-1.222-3.904,1.622-2.775,2.882c4.86,5.427,9.93,10.655,15.255,15.59
	c0.93-0.957,1.91-1.853,2.857-2.791C923.338,1015.161,918.239,1009.9,913.359,1004.451z"/>
<path style="fill:#EF7E95;" d="M1090.247,748.986c7.217-3.876,10.928-14.198,8.434-24.963
	c-2.853-12.316-12.746-20.544-22.095-18.378c-9.349,2.166-14.615,13.906-11.762,26.222c2.709,11.693,11.762,19.588,20.673,18.514
	c0.474-0.057,0.949-0.027,1.422-0.136C1088.096,749.972,1089.207,749.545,1090.247,748.986z"/>
<path style="fill:#686C41;" d="M630.299,438.425c0.254-4.76,11.373-6.43,11.078-0.914c-0.383,7.166-0.696,14.336-0.929,21.509
	c-1.675,51.692,0.5,103.466,5.325,154.956c0.453-0.075,0.893-0.181,1.313-0.334c2.834-1.033,4.958-3.707,6.802-6.208
	c32.581-44.195,64.822-90.004,81.133-142.432c16.311-52.428,14.481-113.313-17.555-157.905
	c-11.389-15.853-27.026-29.596-45.983-34.244c-28.025-6.87-57.802,7.769-76.905,29.395
	c-46.951,53.153-64.706,141.701-41.249,208.087c14.498,41.032,43.619,76.685,80.832,99.232
	C629.119,552.691,627.251,495.461,630.299,438.425z"/>
<path style="fill:#686C41;" d="M786.611,664.33c-11.751,20.299-22.726,41.047-32.429,62.407
	c-13.485,29.688-23.806,60.19-31.221,91.34c0.105,0.025,0.195,0.084,0.302,0.104l1.287,0.105c2.628-0.047,5.137-1.649,7.367-3.188
	c39.384-27.192,78.944-55.81,107.252-94.4c28.307-38.591,44.059-89.294,30.294-135.131c-4.893-16.295-13.885-32.057-28.195-41.262
	c-21.152-13.607-49.846-9.982-71.723,2.428c-53.767,30.502-93.504,98.455-92.989,159.825c0.311,37.125,13.622,73.98,36.953,102.846
	c13.681-51.122,35.334-99.758,62.089-145.977C777.903,659.443,789.676,659.036,786.611,664.33z"/>
<path style="fill:#432918;" d="M800.227,1197.979c-2.386,0.84-4.696,1.846-6.758,3.386c-1.069,0.798-1.995,1.696-2.856,2.639
	c3.972,9.105,8,18.185,12.111,27.229c4.813,10.589,9.758,21.12,14.762,31.622c-14.112-10.099-28.754-19.39-43.966-27.679
	c-0.162,0.15-0.302,0.315-0.469,0.462c-2.729,2.392-5.774,4.135-8.998,5.354c2.489,1.336,4.992,2.631,7.458,4.035
	c14.712,8.374,28.824,17.724,42.417,27.791c4.753-4.358,9.414-8.962,14.612-12.724c-1.523-3.192-3.078-6.367-4.583-9.567
	C815.78,1233.132,807.883,1215.608,800.227,1197.979z"/>
<path style="fill:#432918;" d="M683.308,842.649c-0.795-3.454-1.543-6.919-2.319-10.378c0.204-0.566,0.218-1.166-0.078-1.788
	c-0.19-0.399-0.396-0.79-0.588-1.189c-13.717-61.53-24.531-123.737-31.594-186.385c-1.087-9.632-2.051-19.28-2.956-28.934
	c-4.825-51.49-7-103.264-5.325-154.956c0.232-7.173,0.546-14.342,0.929-21.509c0.295-5.516-10.824-3.846-11.078,0.914
	c-3.048,57.036-1.179,114.266,3.863,171.142c0.299,3.375,0.568,6.755,0.889,10.128c5.542,58.131,14.428,115.931,25.941,173.178
	c-13.224-22.564-28.315-43.985-45.687-63.667c-7.207-8.165-14.782-15.973-22.612-23.513c-20.342-19.587-42.58-37.185-65.843-53.201
	c-20.134-13.862-41.002-26.619-62.159-38.851c-3.954-2.286-14.407,3.214-9.086,6.29c48.48,28.029,94.968,59.453,134.081,98.809
	c16.202,16.302,31.169,33.932,44.439,53.298c13.382,19.53,24.973,40.199,35.147,61.564c0.154,0.323,0.36,0.597,0.595,0.844
	c3.052,13.626,6.228,27.223,9.567,40.781c3.26-2.677,6.308-5.782,9.569-8.577C687.059,858.661,685.152,850.662,683.308,842.649z"/>
<path style="fill:#432918;" d="M714.877,859.452c2.151-13.907,4.831-27.705,8.085-41.375c7.416-31.15,17.737-61.651,31.221-91.34
	c9.702-21.361,20.678-42.108,32.429-62.407c3.064-5.294-8.708-4.887-11.014-0.904c-26.755,46.219-48.408,94.856-62.089,145.977
	c-4.385,16.388-7.943,33.034-10.587,49.938C706.967,858.552,710.987,858.629,714.877,859.452z"/>
<path style="fill:#686C41;" d="M787.061,903.58c6.627,4.823,8.933,13.492,15.509,18.374c9.497,7.052,22.399,3.682,33.404,7.302
	c9.296-16.903,19.377-33.44,30.123-49.614c1.585-2.385,4.778-3.732,7.62-3.412c1.997,0.225,5,1.897,3.394,4.316
	c-11.569,17.414-22.49,35.255-32.528,53.595c13.986,11.844,14.543,35.085,6.912,50.594c-6.745,13.709-18.841,24.028-32.408,31.29
	c5.258,0.133,10.47,0.546,15.57,1.257c28.784-16.844,56.506-35.479,79.818-58.957c2.797-2.817,5.628-5.597,8.29-8.561
	c5.67-6.315,10.962-13.065,15.818-20.131c22.527-32.781,35.203-72.713,27.652-111.355c-3.263-16.698-10.658-33.269-23.989-43.841
	c-19.708-15.627-48.62-14.848-71.613-4.655c-50.579,22.421-92.836,75.807-105.143,130.589
	C772.737,898.5,780.9,899.096,787.061,903.58z"/>
<path style="fill:#432918;" d="M873.716,876.231c-2.842-0.32-6.035,1.027-7.62,3.412c-10.745,16.174-20.827,32.71-30.123,49.614
	c1.82,0.599,3.594,1.367,5.285,2.429c1.19,0.746,2.285,1.577,3.324,2.457c10.038-18.34,20.959-36.18,32.528-53.595
	C878.717,878.129,875.714,876.456,873.716,876.231z"/>
<path style="fill:#686C41;" d="M928.695,1020.133c-0.946,0.937-1.927,1.833-2.857,2.791c-19.81,20.401-35.637,45.263-44.997,71.305
	c3.345,5.954,6.835,11.945,6.982,18.996c0.248,11.902-6.793,21.984-16.358,28.773c-1.264,34.509,8.451,69.379,27.581,98.145
	c18.345-50.324,44.853-97.283,76.21-141.308c1.699-2.386,4.768-3.795,7.729-3.461c1.956,0.221,5.163,1.964,3.443,4.378
	c-13.738,19.29-26.75,39.1-38.53,59.652c-15.922,27.776-29.531,56.884-39.904,87.169c2.158-0.196,4.317-1.199,6.287-2.235
	c23.041-12.118,46.126-24.722,67.71-39.251c-2.78-2.139-5.295-4.594-7.255-7.681c-12.564-19.789-1.128-47.076,15.689-60.363
	c16.255-12.843,37.879-17.146,58.588-16.593c0.568,0.015,1.135,0.034,1.703,0.056c-19.66-10.439-37.169-24.059-45.867-42.805
	c-3.941-8.495-4.825-19.014-0.104-27.389c4.646-8.243,14.279-12.044,18.999-20.234c7.945-13.787-0.988-30.993,5.996-45.661
	c1.14-2.395,2.554-4.552,4.143-6.534c-8.282-2.146-17.101-2.615-25.849-1.685c-2.01,0.214-4.017,0.475-6.011,0.834
	c-1.84,0.331-3.664,0.74-5.477,1.188c-1.804,0.446-3.587,0.958-5.354,1.516c-2.513,0.793-4.994,1.67-7.401,2.677
	c-6.404,2.677-12.667,5.911-18.789,9.511c-1.472,0.866-2.93,1.758-4.382,2.673c-2.781,1.752-5.545,3.543-8.248,5.466
	c-1.564,1.113-3.077,2.323-4.613,3.49C941.102,1008.612,934.732,1014.157,928.695,1020.133z"/>
<path style="fill:#432918;" d="M907.994,1246.572c10.374-30.285,23.983-59.393,39.904-87.169
	c11.78-20.551,24.792-40.362,38.53-59.652c1.72-2.415-1.487-4.158-3.443-4.378c-2.961-0.333-6.03,1.076-7.729,3.461
	c-31.357,44.025-57.865,90.984-76.21,141.308c-3.164,8.679-6.087,17.458-8.746,26.341c3.214,2.69,6.197,5.663,8.939,8.829
	c1.291-4.813,2.642-9.612,4.094-14.386C904.799,1256.11,906.365,1251.329,907.994,1246.572z"/>
<path style="fill:#686C41;" d="M455.604,619.932c-5.321-3.076,5.132-8.576,9.086-6.29c21.157,12.232,42.025,24.989,62.159,38.851
	c23.263,16.016,45.501,33.614,65.843,53.201c4.852-36.125-2.536-73.828-20.827-105.371c-30.787-53.091-99.575-91.365-161.382-90.26
	c-25.148,0.449-51.693,11.931-62.977,34.409c-7.633,15.206-7.353,33.349-3.273,49.867c11.477,46.463,50.839,82.094,94.845,100.909
	c44.006,18.814,92.624,23.318,140.365,26.683c2.703,0.191,5.677,0.292,7.965-1.004l1.054-0.746c0.484-0.423,0.885-0.909,1.223-1.44
	C550.573,679.384,504.084,647.96,455.604,619.932z"/>
<path style="fill:#686C41;" d="M520.324,973.667c4.025-7.141,12.369-10.433,16.458-17.528c4.046-7.02,3.046-15.064,2.758-23.083
	c-23.298-7.967-47.127-14.687-71.154-20.667c-2.727-0.679-2.886-3.141-1.351-5.039c1.81-2.239,5.588-2.863,8.23-2.206
	c21.742,5.411,43.355,11.365,64.669,18.281c0.367-2.328,0.986-4.619,2.043-6.841c8.73-18.334,34.016-22.515,51.512-16.299
	c6.956,2.471,13.216,6.349,18.875,11.046c-9.516-19.933-22.935-38.008-39.453-52.677c-45.888-40.752-123.211-55.515-181.55-35.077
	c-23.737,8.316-45.34,27.545-49.003,52.429c-2.478,16.832,3.48,33.973,12.536,48.377c25.473,40.517,74.026,62.002,121.713,66.061
	c13.875,1.181,27.738,1.061,41.567,0.047C517.008,984.8,517.444,978.776,520.324,973.667z"/>
<path style="fill:#432918;" d="M467.035,907.349c-1.535,1.899-1.376,4.36,1.351,5.039c24.027,5.98,47.857,12.699,71.154,20.667
	c-0.116-3.238-0.104-6.47,0.394-9.631c-21.314-6.916-42.927-12.87-64.669-18.281C472.623,904.486,468.845,905.11,467.035,907.349z"
	/>
<path style="fill:#686C41;" d="M710.492,1219.789c-0.617-0.917-1.23-1.835-1.801-2.783c-1.112-0.38-2.212-0.799-3.327-1.168
	c-1.32,3.065-2.847,6.004-4.596,8.799c1.742-0.772,3.486-1.544,5.224-2.319C707.545,1221.624,709.144,1220.819,710.492,1219.789z"/>
<path style="fill:#686C41;" d="M427.063,1171.616c-0.036-1.529,3.686-1.388,3.723,0.188c0.279,11.946-0.296,23.884-2.189,35.63
	c2.904,4.599,6.202,8.971,9.811,12.988c10.96,12.195,24.244,21.668,38.846,28.767c-3.365-12.585-5.38-25.476-6.531-38.456
	c-7.054-1.187-13.002-8.481-13.961-17.862c-1.103-10.79,4.81-20.233,13.207-21.091c8.397-0.859,16.098,7.193,17.201,17.984
	c1.04,10.173-4.189,19.053-11.823,20.766c1.285,13.957,3.591,27.803,7.517,41.272c0.978,0.425,1.973,0.815,2.961,1.219
	c6.858-13.516,11.423-28.064,14.712-42.862c0.331-1.492,3.912-0.464,3.57,1.075c-3.321,14.947-7.972,29.553-14.894,43.182
	c5.872,2.237,11.904,4.122,18.049,5.669c-1.893-1.814-3.766-3.652-5.601-5.529c-1.102-1.127,1.397-3.889,2.466-2.796
	c3.35,3.426,6.803,6.753,10.356,9.966c7.309,1.51,14.737,2.534,22.203,3.145c-1.279-6.958-2.281-13.971-3.035-21.015
	c-6.715-1.24-12.403-8.545-13.36-17.908c-1.103-10.79,4.49-20.2,12.492-21.018c8.001-0.818,15.383,7.266,16.485,18.057
	c1.018,9.957-3.695,18.649-10.713,20.589c0.8,7.267,1.839,14.505,3.208,21.677c8.056,0.444,16.12,0.352,24.105-0.186
	c0.222-1.678,0.441-3.356,0.597-5.046c0.16-1.736,3.731-0.846,3.6,0.582c-0.131,1.417-0.323,2.822-0.498,4.23
	c0.005,0,0.009,0,0.014-0.001c33.545-2.89,65.767-13.114,97.146-25.704c-4.906-2.069-9.58-4.91-14.973-5.383
	c-13.732-1.207-23.985,12.094-38.058,11.965c-20.304-0.187-34.757-21.354-36.495-39.839c-0.465-4.939-0.206-9.861,0.545-14.722
	c-9.596-0.875-19.213-1.599-28.836-2.204c-7.713-0.486-0.953-7.897,4.142-7.576c8.804,0.555,17.6,1.229,26.39,1.977
	c2.721-9.906,7.459-19.39,13.291-27.885c0.437-0.637,0.881-1.269,1.329-1.898c-13.873,6.652-28.418,10.592-42.768,8.77
	c-8.048-1.022-16.172-5.22-20.142-12.542c-3.907-7.206-2.257-16.023-6.092-23.259c-6.454-12.181-23.193-13.554-30.736-25.434
	c-0.176-0.277-0.3-0.57-0.465-0.85c-12.973,3.538-25.372,8.363-36.656,14.642c-21.977,12.231-39.997,34.853-39.376,59.997
	c0.238,9.642,3.225,18.894,7.787,27.428C426.926,1192.153,427.303,1181.871,427.063,1171.616z"/>
<path style="fill:#432918;" d="M553.055,1181.362c-5.096-0.321-11.855,7.09-4.142,7.576c9.622,0.606,19.24,1.329,28.836,2.204
	c0.406-2.627,0.988-5.226,1.697-7.803C570.655,1182.591,561.859,1181.917,553.055,1181.362z"/>
<path style="fill:#432918;" d="M706.505,1213.16c-0.35,0.91-0.758,1.786-1.141,2.677c1.115,0.37,2.215,0.789,3.327,1.168
	C707.931,1215.744,707.186,1214.471,706.505,1213.16z"/>
<path style="fill:#686C41;" d="M320.554,1655.457c36.917-9.396,72.942-21.992,108.08-36.668c-0.045-0.116-0.055-0.241-0.11-0.355
	l-0.503-0.819c-1.187-1.556-3.253-2.355-5.159-3.015c-33.668-11.649-68.27-22.776-103.896-22.756
	c-35.626,0.019-72.988,12.909-94.425,41.364c-7.621,10.116-13.115,22.456-12.333,35.097c1.155,18.687,15.973,34.306,33.058,41.964
	c41.991,18.821,100.271,12.722,136.865-14.627c22.691-16.958,39.142-42,45.882-69.509c-34.474,14.174-69.771,26.24-105.825,35.417
	C316.47,1663.004,314.841,1656.911,320.554,1655.457z"/>
<path style="fill:#686C41;" d="M431.03,1527.247c-4.466-1.007,1.551-5.358,4.464-4.701c31.52,7.108,63.777,11.544,96.149,10.469
	c2.745-0.091,5.48-0.262,8.215-0.43c0.137-0.541,0.223-1.09,0.156-1.652l-0.183-0.818c-0.537-1.619-2.014-2.864-3.398-3.948
	c-24.449-19.147-49.815-38.127-79.186-48.21c-29.37-10.084-63.821-10.051-89.557,7.326c-9.149,6.177-17.176,14.791-20.115,25.432
	c-4.345,15.73,3.441,32.805,15.352,43.96c29.276,27.417,79.043,38.911,116.959,26.743c23.295-7.476,43.776-23.241,57.141-43.726
	c-2.737,0.149-5.474,0.307-8.219,0.379C495.833,1538.935,463.145,1534.489,431.03,1527.247z"/>
<path style="fill:#432918;" d="M445.507,1611.57c-5.6,2.462-11.228,4.861-16.873,7.219c-35.138,14.677-71.163,27.272-108.08,36.668
	c-5.712,1.454-4.084,7.547,1.632,6.091c36.054-9.177,71.352-21.243,105.825-35.417c30.693-12.619,60.72-26.927,90.04-42.38
	c0.93-3.15,2.107-6.238,3.462-9.259C496.622,1587.755,471.315,1600.225,445.507,1611.57z"/>
<path style="fill:#432918;" d="M620.663,1523.491c0.542-0.351,1.078-0.712,1.619-1.064c-2.202-1.195-4.389-2.408-6.542-3.666
	c-0.105,0.068-0.21,0.134-0.315,0.203c-24.7,7.13-49.915,12.04-75.568,13.62c-2.735,0.168-5.47,0.339-8.215,0.43
	c-32.372,1.075-64.629-3.361-96.149-10.469c-2.913-0.657-8.93,3.694-4.464,4.701c32.115,7.242,64.803,11.688,97.779,10.825
	c2.745-0.072,5.482-0.229,8.219-0.379c7.605-0.413,15.178-1.115,22.716-2.083C578.289,1526.451,599.766,1523.094,620.663,1523.491z"
	/>
<path style="fill:#686C41;" d="M561.029,1433.175c-4.528-1.191-9.042-2.429-13.536-3.737c-4.444-1.295,1.553-5.549,4.464-4.701
	c3.919,1.141,7.851,2.237,11.794,3.288c6.509-9.98,18.412-15.154,24.428-25.592c2.839-4.926,4.045-10.183,4.501-15.609
	c-3.168-1.726-6.383-3.372-9.677-4.881c-8.106-3.712-16.718-6.602-25.513-8.535c-8.054,8.965-17.05,17.053-26.665,24.403
	c-1.252,0.957-3.691-1.859-2.477-2.787c8.903-6.806,17.294-14.276,24.907-22.469c-19.149-3.485-38.942-2.169-56.297,5.982
	c-2.223,5.787-7.785,11.137-15.365,13.92c-1.705,0.626-3.41,1.044-5.103,1.351c-2.43,3-4.456,6.296-5.855,9.92
	c-5.874,15.225,0.19,32.984,10.944,45.26c22.688,25.898,61.548,41.557,96.726,40.192c-6.215-6.968-11.533-14.546-15.435-22.956
	C558.144,1456.041,556.745,1443.7,561.029,1433.175z"/>
<path style="fill:#432918;" d="M547.493,1429.438c4.494,1.308,9.008,2.545,13.536,3.737c0.503-1.235,1.038-2.46,1.702-3.637
	c0.303-0.537,0.688-1.002,1.021-1.512c-3.943-1.051-7.875-2.147-11.794-3.288C549.046,1423.889,543.048,1428.144,547.493,1429.438z"
	/>
<path style="fill:#686C41;" d="M716.781,1344.107c0.215-3.378,0.598-6.714,1.099-10.017c-5.221-0.999-10.422-2.102-15.601-3.315
	C707.447,1334.786,712.289,1339.261,716.781,1344.107z"/>
<path style="fill:#686C41;" d="M604.486,1269.515c-9.823,5.037-18.825,12.627-23.017,22.839
	c-6.198,15.097-0.514,32.981,9.975,45.483c1.349,1.607,2.792,3.156,4.257,4.688c0.179-0.417,0.313-0.84,0.51-1.253
	c13.498-28.348,52.597-34.813,79.65-25.202c3.762,1.336,7.393,2.942,10.911,4.753c10.617,3.008,21.332,5.627,32.14,7.781
	c1.416-6.853,3.447-13.521,6.383-19.873c1.78-3.85,4.138-7.511,6.917-10.808c-11.761-9.667-24.238-18.32-37.938-24.952
	C666.325,1259.441,632.119,1255.346,604.486,1269.515z"/>
<path style="fill:#432918;" d="M702.279,1330.775c5.179,1.212,10.38,2.315,15.601,3.315c0.28-1.848,0.657-3.666,1.033-5.485
	c-10.808-2.154-21.523-4.773-32.14-7.781C692.239,1323.638,697.407,1326.993,702.279,1330.775z"/>
<path style="fill:#686C41;" d="M469.869,1732.446c-0.688,3.041-8.37,4.074-7.611,0.722c7.516-33.225,16.836-66.351,32.139-96.923
	c0.449-0.897,0.952-1.76,1.411-2.65c-23.406,3.928-45.451,15.704-61.515,33.187c-26.943,29.322-37.37,79.324-24.751,117.396
	c5.134,15.491,17.372,29.717,33.475,32.367c10.893,1.792,22.078-1.885,31.522-7.601c26.565-16.081,41.038-47.344,44.195-78.236
	c3.158-30.893-3.44-61.879-10.574-92.102c-0.404-1.711-0.915-3.573-2.16-4.74l-0.666-0.509c-0.505-0.31-1.066-0.464-1.642-0.562
	c-0.708,1.351-1.465,2.67-2.15,4.037C486.44,1667.006,477.287,1699.656,469.869,1732.446z"/>
<path style="fill:#432918;" d="M495.808,1633.596c-0.46,0.891-0.962,1.753-1.411,2.65c-15.303,30.572-24.623,63.698-32.139,96.923
	c-0.758,3.352,6.924,2.319,7.611-0.722c7.418-32.791,16.571-65.44,31.674-95.614c0.685-1.367,1.441-2.686,2.15-4.037
	c3.892-7.423,8.14-14.604,12.718-21.55c-0.648-3.184-0.927-6.425-0.951-9.686C508.169,1611.723,501.585,1622.398,495.808,1633.596z"
	/>
<path style="fill:#686C41;" d="M676.753,1707.694c-21.452,10.285-43.942,16.377-66.131,13.56c-4.731-0.601-9.474-1.92-13.879-3.936
	c3.027,6.487,6.573,12.62,10.7,18.172c9.735,13.098,25.818,22.767,41.939,20.231c1.503-0.236,2.972-0.593,4.419-1.02
	c4.156-15.67,11.689-30.659,20.898-44.073C675.374,1709.642,676.06,1708.665,676.753,1707.694z"/>
<path style="fill:#EA566A;" d="M331.072,1145.034c4.566-6.547,3.944-16.601-2.172-24.526c-7.255-9.399-19.399-12.185-27.125-6.222
	c-7.727,5.963-8.109,18.417-0.854,27.817c7.098,9.196,18.848,12.003,26.59,6.539c0.172-0.121,0.368-0.188,0.535-0.317
	C329.258,1147.39,330.223,1146.252,331.072,1145.034z"/>
<path style="fill:#EF7E95;" d="M402.751,1159.387c0.637-0.096,1.223-0.333,1.822-0.534c6.854-2.31,11.094-11.19,9.604-21.054
	c-1.62-10.725-9.362-18.448-17.293-17.25c-7.93,1.198-13.046,10.863-11.426,21.588c1.4,9.27,7.378,16.269,14.094,17.231
	C400.608,1159.519,401.676,1159.55,402.751,1159.387z"/>
<path style="fill:#432918;" d="M575.601,1345.435c-0.032-0.148-0.041-0.295-0.145-0.448c-7.266-10.653-13.664-21.822-19.035-33.49
	c6.305-14.985,11.138-30.532,13.147-46.671c0.175-1.408,0.367-2.813,0.498-4.23c0.132-1.428-3.439-2.318-3.6-0.582
	c-0.156,1.69-0.376,3.369-0.597,5.046c-1.903,14.409-6.144,28.362-11.584,41.831c-1.782-4.152-3.443-8.363-4.921-12.656
	c-3.262-9.481-5.728-19.175-7.6-28.988c-1.368-7.172-2.408-14.41-3.208-21.677c-0.587,0.162-1.161,0.367-1.779,0.43
	c-1.059,0.108-2.102,0.04-3.126-0.149c0.753,7.044,1.756,14.057,3.035,21.015c0.998,5.432,2.171,10.828,3.56,16.172
	c-9.253-5.507-17.78-12.098-25.763-19.317c-3.553-3.213-7.006-6.54-10.356-9.966c-1.069-1.093-3.568,1.669-2.466,2.796
	c1.836,1.877,3.708,3.715,5.601,5.529c10.405,9.974,21.733,18.897,34.361,25.917c1.064,3.708,2.198,7.399,3.488,11.048
	c5.449,15.417,13.033,29.876,21.844,43.601c-7.535-4.253-15.015-8.599-22.422-13.068l-3.709-2.23
	c-6.409-3.907-12.778-7.878-19.089-11.935c-4.799-3.086-9.545-6.261-14.292-9.434c0.017-0.229-0.031-0.467-0.191-0.71
	c-8.8-13.342-16.111-27.523-21.43-42.576c1.189-2.067,2.315-4.164,3.39-6.282c6.921-13.628,11.573-28.235,14.894-43.182
	c0.342-1.539-3.238-2.567-3.57-1.075c-3.288,14.798-7.853,29.346-14.712,42.862c-0.531,1.046-1.093,2.076-1.652,3.109
	c-0.062-0.193-0.145-0.376-0.206-0.569c-0.394-1.247-0.738-2.505-1.104-3.759c-3.926-13.469-6.232-27.315-7.517-41.272
	c-0.464,0.104-0.904,0.276-1.384,0.325c-1.098,0.112-2.18,0.056-3.24-0.122c1.151,12.981,3.167,25.871,6.531,38.456
	c0.809,3.027,1.669,6.043,2.642,9.031c4.572,14.037,11.078,27.253,18.744,39.815c-17.872-12.239-35.361-25.074-52.304-38.595
	c-8.168-10.947-15.508-22.448-21.608-34.623c1.677-5.729,2.925-11.534,3.869-17.383c1.893-11.746,2.469-23.683,2.189-35.63
	c-0.037-1.576-3.759-1.716-3.723-0.188c0.24,10.255-0.137,20.537-1.446,30.692c-0.752,5.838-1.827,11.63-3.287,17.35
	c-1.416-3.046-2.861-6.077-4.113-9.207c-6.64-16.601-10.851-33.98-13.645-51.599c-0.599,0.201-1.185,0.438-1.822,0.534
	c-1.076,0.163-2.144,0.132-3.198-0.02c2.877,18.422,7.301,36.587,14.382,53.883c5.016,12.249,11.378,23.811,18.584,34.852
	c-19.098-15.921-37.503-32.658-54.968-50.32c-16.484-16.671-32.117-34.214-46.481-52.748c-0.849,1.217-1.814,2.355-3.026,3.29
	c-0.167,0.129-0.363,0.196-0.535,0.317c20.39,26.191,43.355,50.385,67.749,72.971c-7.434-2.457-14.973-4.526-22.611-6.176
	c-0.27-0.133-0.611-0.197-0.972-0.203c-6.262-1.32-12.574-2.405-18.967-3.068c-0.049-0.061-0.076-0.139-0.143-0.186
	c-14.759-10.294-31.297-17.349-48.432-22.649c-1.506-0.465-2.822,3.02-1.361,3.471c14.843,4.59,29.322,10.481,42.495,18.725
	c-13.756-0.848-27.536-0.154-41.213,1.504c0.275,0.762,0.555,1.524,0.679,2.343c0.023,0.154-0.01,0.305,0.008,0.46
	c14.98-1.753,30.068-2.331,45.126-0.88l1.742,0.236c5.365,0.575,10.671,1.45,15.938,2.506
	c-13.195,10.016-28.037,17.419-43.489,23.347c-2.319,0.89-0.249,2.551,1.527,1.869c16.092-6.172,31.587-13.954,45.246-24.525
	c10.267,2.245,20.369,5.217,30.264,8.872c0.104,0.038,0.23,0.033,0.346,0.049c9.83,8.903,19.855,17.575,30.047,25.985
	c3.472,2.865,7.017,5.644,10.532,8.457l2.246,1.803c5.235,4.162,10.523,8.256,15.851,12.302c-13.96-3.743-28.193-6.31-42.643-7.232
	c-13.699-11.122-29.322-19.316-45.667-25.852c-1.463-0.585-3.055,2.783-1.635,3.351c14.487,5.793,28.5,12.868,41.007,22.203
	c-15.08-0.459-30.09,0.795-44.955,3.167c0.212,0.588,0.487,1.148,0.613,1.772c0.081,0.406,0.035,0.81,0.076,1.217
	c15.514-2.439,31.2-3.635,46.925-2.803c0.617,0.033,1.224,0.129,1.841,0.168l1.973,0.179c17.238,1.275,34.12,4.865,50.615,10.025
	c17.863,13.244,36.247,25.793,55.044,37.685c-6.175-1.73-12.417-3.188-18.717-4.38c0,0,0,0-1.468-0.28
	c-5.337-0.969-10.712-1.751-16.135-2.273c-0.434-0.041-0.869-0.06-1.303-0.099c-0.024-0.026-0.028-0.063-0.055-0.086
	c-13.884-11.447-29.801-19.809-46.455-26.469c-1.464-0.585-3.055,2.783-1.636,3.35c14.742,5.895,28.984,13.131,41.657,22.711
	c-14.111-0.796-28.242-0.09-42.277,1.55c0.198,0.618,0.45,1.215,0.548,1.869c0.06,0.399-0.004,0.791,0.017,1.189
	c15.856-1.794,31.821-2.349,47.753-0.814c4.771,0.46,9.507,1.11,14.206,1.929c-12.827,9.9-27.311,17.354-42.322,23.407
	c-1.418,0.572,0.183,3.935,1.645,3.346c16.254-6.555,31.785-14.754,45.41-25.841c10.855,2.162,21.518,5.195,31.992,8.865
	c17.411,10.61,35.154,20.665,53.232,30.054c-12.438-1.411-24.944-1.928-37.444-1.259c-0.09-0.32-0.247-0.59-0.524-0.713
	c-16.471-7.246-34.06-10.971-51.897-12.858c-1.568-0.166-2.185,3.508-0.665,3.668c15.679,1.658,31.246,4.718,45.953,10.419
	c-0.912,0.083-1.825,0.138-2.737,0.234c-15.563,1.643-30.768,5.174-45.649,9.847c0.276,0.515,0.616,0.99,0.821,1.548
	c0.151,0.413,0.171,0.845,0.278,1.265c14.963-4.697,30.279-8.184,45.932-9.686c6.872-0.66,13.743-0.802,20.61-0.723
	c-3.336,4.589-6.982,8.907-10.827,13.047c-7.613,8.193-16.004,15.663-24.907,22.469c-1.215,0.928,1.224,3.744,2.477,2.787
	c9.615-7.35,18.611-15.439,26.665-24.403c3.882-4.322,7.612-8.783,10.96-13.584c0.053-0.077,0.055-0.171,0.08-0.257
	c7.961,0.259,15.904,0.968,23.822,2.009c0.007-2.346,0.117-4.68,0.355-6.996C586.97,1351.595,581.269,1348.55,575.601,1345.435z"/>
<path style="fill:#EF7E95;" d="M496.958,1378.537c1.098-2.857,1.3-5.803,0.583-8.62c-0.107-0.42-0.127-0.852-0.278-1.265
	c-0.205-0.558-0.545-1.033-0.821-1.548c-4.059-7.597-15.406-10.544-26.531-6.458c-11.88,4.362-18.896,15.021-15.67,23.805
	c2.763,7.524,12.149,11.188,22.249,9.358c1.693-0.307,3.398-0.725,5.103-1.351C489.173,1389.674,494.735,1384.325,496.958,1378.537z
	"/>
<path style="fill:#EF7E95;" d="M436.924,1313.76c-2.499-7.808-12.545-12.661-23.716-10.974
	c-12.055,1.82-20.735,10.522-19.389,19.436c1.346,8.913,12.21,14.663,24.264,12.843c11.515-1.739,19.847-9.763,19.406-18.247
	c-0.02-0.398,0.043-0.79-0.017-1.189C437.374,1314.975,437.122,1314.378,436.924,1313.76z"/>
<path style="fill:#EA566A;" d="M487.171,1189.762c-1.103-10.79-8.804-18.842-17.201-17.984c-8.397,0.858-14.31,10.301-13.207,21.091
	c0.959,9.38,6.907,16.675,13.961,17.862c1.06,0.178,2.142,0.234,3.24,0.122c0.48-0.049,0.921-0.221,1.384-0.325
	C482.982,1208.815,488.211,1199.934,487.171,1189.762z"/>
<path style="fill:#EA566A;" d="M366.226,1271.494c-2.902-8.046-13.572-12.642-25.086-10.332
	c-12.355,2.479-20.882,11.915-19.044,21.078c1.838,9.163,13.344,14.582,25.699,12.103c11.809-2.368,20.012-11.095,19.12-19.861
	c-0.041-0.407,0.005-0.811-0.076-1.217C366.714,1272.642,366.438,1272.082,366.226,1271.494z"/>
<path style="fill:#EA566A;" d="M549.27,1222.982c-1.102-10.79-8.484-18.875-16.485-18.057c-8.002,0.818-13.595,10.228-12.492,21.018
	c0.957,9.363,6.644,16.668,13.36,17.908c1.024,0.189,2.067,0.257,3.126,0.149c0.618-0.063,1.192-0.267,1.779-0.43
	C545.574,1241.631,550.288,1232.939,549.27,1222.982z"/>
<path style="fill:#EF7E95;" d="M304.055,1213.031c-2.694-7.469-12.262-12.08-22.832-10.483
	c-11.649,1.759-20.01,10.355-18.674,19.198c1.336,8.843,11.861,14.585,23.511,12.826c11.445-1.729,19.664-10.06,18.682-18.738
	c-0.018-0.154,0.016-0.305-0.008-0.46C304.61,1214.556,304.33,1213.794,304.055,1213.031z"/>
<path style="fill:#771425;" d="M902.669,1587.062c-12.754-7.047-26.406-12.237-40.564-15.51c0-0.002-0.001-0.002-0.001-0.004
	c0.114-1.973,1.557-3.586,1.651-5.56c0.096-2.007-1.055-3.889-2.587-5.106c-3.359-2.667-7.867-3.575-12.484-3.691
	c3.273-1.752,6.191-4.241,7.818-7.548c1.748-3.552,1.707-8.779-1.188-11.745c11.513-6.398,23.617-11.607,36.14-15.351
	c1.597-0.477-0.416-6.177-2.492-5.557c-14.528,4.344-28.494,10.642-41.61,18.533c-0.946-0.159-1.852-0.431-2.653-1.025
	c-1.586-1.177-2.143-3.269-3.741-4.432c-1.624-1.182-3.829-1.253-5.688-0.64c-1.098,0.362-2.135,0.864-3.115,1.479
	c-0.079-1.533-0.366-3.043-0.913-4.487c-1.586-4.188-6.301-8.188-11.035-6.933c-2.463,0.652-3.941,2.926-5.908,4.273
	c-1.688-11.218-2.533-22.513-2.288-33.749c0.038-1.741-6.026-1.728-6.076,0.534c-0.246,11.276,0.607,22.611,2.308,33.868
	c-0.637-0.081-1.275-0.127-1.916-0.003c-1.973,0.38-3.53,1.942-4.352,3.719c-0.797,1.725-1.205,3.587-1.328,5.519
	c-1.787-1.928-3.918-3.498-6.384-4.374c-4.22-1.5-10.32-0.491-12.426,3.931c-0.29,0.611-0.427,1.246-0.507,1.889
	c-12.096-6.543-23.292-14.642-33.249-24.19c-1.148-1.102-5.029,4.014-3.536,5.446c10.785,10.342,23.06,18.921,36.327,25.717
	c-0.089,0.228-0.161,0.459-0.288,0.679c-0.986,1.712-2.999,2.506-3.97,4.229c-0.987,1.75-0.802,3.948,0.021,5.724
	c1.818,3.917,5.477,6.764,9.585,8.945l-0.356-0.011c-4.327-0.116-8.846,0.783-12.243,3.467c-2.821,2.23-4.869,6.336-4.227,10.013
	c-13.986,2.699-28.277,3.555-42.529,2.516c-1.677-0.122-1.387,6.656,0.793,6.816c15.735,1.147,31.516-0.037,46.882-3.44
	c1.284,0.738,2.513,1.518,3.216,2.846c0.925,1.745,0.527,3.873,1.469,5.611c0.958,1.766,2.918,2.779,4.859,3.025
	c3.461,0.44,6.97-0.511,10.317-2.115l-0.321,0.458c-2.45,3.569-4.152,7.85-3.747,12.16c0.381,4.05,3.305,8.59,7.505,9.432
	c-5.077,11.801-11.529,22.954-19.277,33.171c-0.943,1.244,4.151,4.45,5.377,2.833c8.798-11.599,15.851-24.434,21.18-38.029
	c1.016-0.456,2.057-0.784,3.199-0.683c1.968,0.173,3.537,1.663,5.508,1.818c2.003,0.156,3.918-0.938,5.181-2.432
	c1.086-1.287,1.906-2.758,2.518-4.349c0.796,1.534,1.813,2.937,3.085,4.117c3.283,3.047,9.284,4.534,12.968,1.305
	c1.951-1.71,2.261-4.46,3.479-6.556c6.906,11.73,12.207,24.334,15.555,37.565c0.365,1.442,5.975-0.691,5.501-2.566
	c-3.409-13.471-8.85-26.289-15.943-38.197c0.583-0.206,1.152-0.445,1.653-0.827c1.599-1.217,2.299-3.309,2.244-5.265
	c-0.051-1.862-0.496-3.676-1.219-5.429c2.286,0.776,4.686,1.131,7.075,0.834c4.444-0.553,9.444-4.191,9.341-9.089
	c-0.011-0.541-0.123-1.049-0.27-1.546c12.387,3.292,24.349,8.06,35.609,14.281C902.03,1594.16,904.521,1588.084,902.669,1587.062z"
	/>
<path style="fill:#FFF0C5;" d="M796.701,1549.146c0.995-1.745,0.78-3.743-0.482-4.462c-1.261-0.719-3.091,0.111-4.086,1.856
	c-0.995,1.744-0.779,3.742,0.482,4.461C793.876,1551.721,795.706,1550.89,796.701,1549.146z"/>
<path style="fill:#FFF0C5;" d="M805.323,1550.067c1.448-0.106,2.503-1.817,2.356-3.82c-0.148-2.003-1.441-3.54-2.889-3.434
	s-2.503,1.816-2.356,3.819C802.581,1548.635,803.874,1550.174,805.323,1550.067z"/>
<path style="fill:#FFF0C5;" d="M815.714,1560.42c-1.176-0.852-3.085-0.224-4.263,1.402c-1.178,1.626-1.18,3.635-0.004,4.488
	c1.176,0.852,3.085,0.224,4.263-1.402C816.888,1563.281,816.89,1561.272,815.714,1560.42z"/>
<path style="fill:#FFF0C5;" d="M791.285,1575.503c-1.178,1.626-1.18,3.635-0.004,4.488c1.176,0.853,3.085,0.225,4.263-1.401
	c1.178-1.626,1.18-3.635,0.005-4.488C794.372,1573.249,792.463,1573.877,791.285,1575.503z"/>
<path style="fill:#FFF0C5;" d="M801.914,1566.222c0.995-1.745,0.779-3.742-0.482-4.462c-1.261-0.719-3.091,0.111-4.086,1.856
	c-0.995,1.745-0.779,3.742,0.482,4.462C799.089,1568.797,800.918,1567.967,801.914,1566.222z"/>
<path style="fill:#FFF0C5;" d="M818.212,1558.117c1.359-0.512,1.886-2.452,1.177-4.33c-0.709-1.879-2.385-2.987-3.744-2.474
	c-1.359,0.512-1.886,2.452-1.177,4.33C815.178,1557.522,816.854,1558.63,818.212,1558.117z"/>
<path style="fill:#FFF0C5;" d="M809.763,1581.968c-1.359,0.512-1.886,2.451-1.177,4.33c0.709,1.879,2.385,2.987,3.744,2.475
	c1.358-0.512,1.886-2.451,1.177-4.33C812.798,1582.563,811.122,1581.456,809.763,1581.968z"/>
<path style="fill:#FFF0C5;" d="M791.836,1560.316c1.744,0.995,3.742,0.779,4.462-0.482c0.719-1.262-0.111-3.091-1.856-4.086
	c-1.745-0.996-3.742-0.78-4.462,0.482C789.261,1557.491,790.092,1559.321,791.836,1560.316z"/>
<path style="fill:#FFF0C5;" d="M802.237,1557.811c1.191,1.616,3.105,2.229,4.274,1.367c1.169-0.862,1.151-2.871-0.04-4.488
	c-1.192-1.616-3.105-2.229-4.275-1.367C801.027,1554.185,801.045,1556.194,802.237,1557.811z"/>
<path style="fill:#FFF0C5;" d="M802.701,1585.14c1.17-0.862,1.151-2.871-0.041-4.488c-1.191-1.617-3.105-2.229-4.274-1.368
	c-1.169,0.862-1.151,2.871,0.041,4.488C799.618,1585.389,801.532,1586.001,802.701,1585.14z"/>
<path style="fill:#FFF0C5;" d="M791.006,1566.296c-1.191-1.617-3.106-2.229-4.275-1.367c-1.169,0.861-1.15,2.871,0.041,4.487
	c1.191,1.617,3.106,2.229,4.275,1.368C792.216,1569.922,792.198,1567.913,791.006,1566.296z"/>
<path style="fill:#FFF0C5;" d="M812.669,1547.714c1.744,0.995,3.742,0.779,4.462-0.482c0.719-1.262-0.111-3.091-1.855-4.086
	c-1.745-0.995-3.743-0.779-4.462,0.482C810.093,1544.889,810.924,1546.719,812.669,1547.714z"/>
<path style="fill:#FFF0C5;" d="M809.772,1571.228c0.256-1.992-0.705-3.757-2.145-3.942c-1.44-0.185-2.815,1.28-3.071,3.272
	c-0.255,1.992,0.705,3.757,2.145,3.941C808.142,1574.685,809.517,1573.22,809.772,1571.228z"/>
<path style="fill:#FFF0C5;" d="M843.415,1582.372c0.995-1.744,0.779-3.742-0.482-4.462c-1.262-0.719-3.091,0.111-4.086,1.855
	c-0.995,1.745-0.78,3.742,0.482,4.462C840.59,1584.948,842.42,1584.117,843.415,1582.372z"/>
<path style="fill:#FFF0C5;" d="M830.225,1578.845c-1.448,0.106-2.504,1.817-2.356,3.82c0.147,2.003,1.44,3.54,2.889,3.434
	c1.448-0.106,2.503-1.817,2.356-3.82C832.966,1580.276,831.673,1578.738,830.225,1578.845z"/>
<path style="fill:#FFF0C5;" d="M844.267,1548.921c-1.176-0.852-3.085-0.224-4.263,1.402c-1.178,1.627-1.18,3.636-0.005,4.488
	c1.177,0.852,3.085,0.224,4.263-1.401C845.441,1551.783,845.444,1549.774,844.267,1548.921z"/>
<path style="fill:#FFF0C5;" d="M838.202,1565.296c0.995-1.745,0.78-3.742-0.482-4.462c-1.261-0.72-3.091,0.111-4.086,1.855
	c-0.995,1.745-0.78,3.742,0.482,4.462C835.378,1567.872,837.207,1567.041,838.202,1565.296z"/>
<path style="fill:#FFF0C5;" d="M819.93,1594.621c-1.943-0.51-3.816,0.216-4.185,1.62c-0.369,1.405,0.908,2.957,2.85,3.467
	c1.942,0.509,3.816-0.216,4.185-1.621C823.149,1596.683,821.873,1595.131,819.93,1594.621z"/>
<path style="fill:#FFF0C5;" d="M825.785,1546.944c1.358-0.512,1.886-2.452,1.177-4.331c-0.708-1.879-2.385-2.987-3.744-2.475
	c-1.359,0.513-1.886,2.452-1.177,4.331C822.749,1546.348,824.426,1547.456,825.785,1546.944z"/>
<path style="fill:#FFF0C5;" d="M843.952,1568.751c-1.626-1.178-3.636-1.18-4.488-0.005c-0.852,1.176-0.225,3.085,1.402,4.263
	c1.626,1.178,3.635,1.181,4.488,0.004C846.206,1571.838,845.578,1569.929,843.952,1568.751z"/>
<path style="fill:#FFF0C5;" d="M829.037,1569.734c-1.169,0.862-1.151,2.871,0.041,4.487c1.192,1.617,3.105,2.229,4.274,1.368
	c1.169-0.862,1.151-2.871-0.041-4.488C832.12,1569.485,830.206,1568.872,829.037,1569.734z"/>
<path style="fill:#FFF0C5;" d="M837.162,1549.627c1.169-0.862,1.151-2.871-0.041-4.488c-1.191-1.617-3.105-2.229-4.274-1.368
	c-1.169,0.862-1.151,2.871,0.04,4.488C834.079,1549.876,835.993,1550.489,837.162,1549.627z"/>
<path style="fill:#FFF0C5;" d="M848.775,1559.496c-1.191-1.616-3.105-2.229-4.274-1.367c-1.169,0.862-1.151,2.871,0.041,4.488
	c1.191,1.617,3.105,2.229,4.274,1.367C849.985,1563.122,849.967,1561.113,848.775,1559.496z"/>
<path style="fill:#FFF0C5;" d="M830.601,1590.334c-1.404-0.369-2.956,0.907-3.466,2.85c-0.509,1.943,0.216,3.817,1.62,4.185
	c1.405,0.369,2.957-0.907,3.467-2.85C832.732,1592.576,832.006,1590.703,830.601,1590.334z"/>
<path style="fill:#FFF0C5;" d="M822.879,1581.198c-1.745-0.995-3.742-0.779-4.462,0.482c-0.72,1.261,0.111,3.091,1.856,4.086
	c1.744,0.995,3.742,0.78,4.461-0.482C825.455,1584.023,824.624,1582.193,822.879,1581.198z"/>
<path style="fill:#FFF0C5;" d="M830.992,1558.354c0.255-1.992-0.705-3.757-2.145-3.942c-1.441-0.185-2.816,1.28-3.071,3.272
	c-0.256,1.992,0.704,3.757,2.145,3.942C829.361,1561.811,830.736,1560.346,830.992,1558.354z"/>
<path style="fill:#FFF0C5;" d="M819.782,1573.506c1.44,0.185,2.816-1.28,3.071-3.272c0.256-1.992-0.704-3.757-2.145-3.941
	c-1.44-0.185-2.815,1.28-3.071,3.272C817.381,1571.557,818.341,1573.321,819.782,1573.506z"/>
<path style="fill:#AD173A;" d="M887.823,1113.224c-0.147-7.051-3.636-13.042-6.982-18.996c-3.33-5.928-6.518-11.82-6.122-18.685
	c0.471-8.176,6.452-14.862,6.845-23.049c0.4-8.319-4.372-16.12-10.725-21.165c-10.098-8.019-22.716-12.169-36.182-14.046
	c-5.1-0.711-10.311-1.124-15.57-1.257c13.567-7.262,25.663-17.581,32.408-31.29c7.63-15.508,7.074-38.749-6.912-50.594
	c-1.039-0.88-2.134-1.711-3.324-2.457c-1.691-1.061-3.465-1.83-5.285-2.429c-11.005-3.621-23.907-0.251-33.404-7.302
	c-6.576-4.882-8.882-13.551-15.509-18.374c-6.161-4.484-14.324-5.08-21.571-3.208c-0.674,0.174-1.352,0.34-2.008,0.556
	c-4.55,1.501-8.849,3.582-12.913,6.129c-0.328-6.353-1.519-12.617-3.785-18.601c-5.009-13.225-17.546-25.965-31.908-29.003
	c-3.89-0.823-7.91-0.9-11.955-0.111c-0.629,0.123-1.257,0.205-1.886,0.372c-4.673,1.238-8.484,3.895-12.033,6.937
	c-3.261,2.795-6.309,5.9-9.569,8.577c-3.521,2.89-7.301,5.265-11.923,6.109c-8.057,1.471-15.965-2.763-24.014-1.214
	c-8.179,1.574-14.633,8.052-18.037,15.416c-3.305,7.149-4.997,14.869-5.507,22.879c-2.366-2.553-4.932-4.881-7.589-7.086
	c-5.659-4.697-11.919-8.575-18.875-11.046c-17.495-6.216-42.782-2.035-51.512,16.299c-1.057,2.221-1.676,4.512-2.043,6.841
	c-0.498,3.161-0.51,6.392-0.394,9.631c0.289,8.019,1.288,16.063-2.758,23.083c-4.089,7.095-12.433,10.388-16.458,17.528
	c-2.881,5.11-3.317,11.133-2.151,16.824c0.489,2.39,1.231,4.727,2.241,6.903c7.534,16.239,22.702,28.038,39.733,37.081
	c-0.491-0.019-0.983-0.036-1.475-0.049c-17.94-0.479-36.672,3.248-50.753,14.373c-14.334,11.325-24.108,34.374-14.057,51.441
	c0.165,0.28,0.289,0.573,0.465,0.85c7.543,11.88,24.282,13.253,30.736,25.434c3.834,7.237,2.185,16.054,6.092,23.259
	c3.97,7.322,12.094,11.52,20.142,12.542c14.35,1.822,28.895-2.118,42.768-8.77c-0.448,0.629-0.892,1.261-1.329,1.898
	c-5.832,8.495-10.571,17.979-13.291,27.885c-0.708,2.577-1.291,5.176-1.697,7.803c-0.752,4.86-1.01,9.783-0.545,14.722
	c1.739,18.486,16.191,39.652,36.495,39.839c14.073,0.13,24.326-13.172,38.058-11.965c5.392,0.474,10.067,3.314,14.973,5.383
	c2.516,1.062,5.09,1.935,7.861,2.151c8.304,0.65,16.244-3.885,21.477-10.084c1.743-2.064,3.274-4.274,4.701-6.553
	c1.75-2.794,3.277-5.733,4.596-8.799c0.383-0.891,0.791-1.767,1.141-2.677c0.681,1.311,1.426,2.583,2.186,3.845
	c0.571,0.948,1.184,1.866,1.801,2.783c2.542,3.78,5.433,7.314,8.803,10.441c11.177,10.373,29.945,16.359,44.759,10.762
	c3.224-1.218,6.269-2.961,8.998-5.354c0.167-0.147,0.307-0.312,0.469-0.462c9.065-8.438,9.196-22.526,17.093-31.172
	c0.861-0.943,1.787-1.841,2.856-2.639c2.062-1.54,4.371-2.545,6.758-3.386c5.208-1.835,10.82-2.797,15.292-6.202
	c6.626-5.046,9.528-13.718,9.303-21.828c-0.214-7.718-2.058-15.238-5.055-22.503c9.477,3.218,19.426,4.688,29.331,3.455
	c7.622-0.949,15.617-4.113,22.366-8.903C881.03,1135.208,888.071,1125.127,887.823,1113.224z"/>
<path style="fill:#C01C49;" d="M844.646,1102.712c-0.232-11.086-10.95-18.847-10.325-29.69c0.372-6.442,5.083-11.71,5.393-18.161
	c0.315-6.555-3.445-12.702-8.451-16.677c-10.971-8.712-25.697-11.678-40.777-12.059c10.69-5.722,20.221-13.853,25.535-24.654
	c6.458-13.127,5.488-33.298-8.066-41.801c-9.393-5.892-21.764-1.192-30.484-7.667c-5.181-3.847-6.998-10.678-12.22-14.478
	c-5.306-3.862-12.508-4.092-18.579-2.09c-3.586,1.183-6.972,2.822-10.175,4.829c-0.258-5.005-1.197-9.941-2.982-14.656
	c-5.182-13.681-20.581-26.746-36.047-22.648c-10.718,2.84-15.731,15.087-26.416,17.038c-6.348,1.159-12.579-2.177-18.921-0.956
	c-6.444,1.24-11.53,6.345-14.212,12.147c-2.604,5.633-3.937,11.716-4.339,18.027c-5.837-6.297-12.798-11.425-20.852-14.287
	c-13.785-4.898-33.71-1.604-40.588,12.842c-4.767,10.011,1.331,21.756-4.093,31.166c-3.222,5.591-9.797,8.185-12.968,13.811
	c-3.223,5.717-2.62,12.897,0.071,18.695c5.937,12.796,17.888,22.092,31.308,29.217l-1.162-0.038
	c-14.135-0.378-28.895,2.559-39.99,11.325c-11.479,9.07-19.285,27.695-10.71,41.202c5.943,9.361,19.132,10.443,24.217,20.041
	c3.021,5.702,1.722,12.649,4.8,18.327c3.128,5.77,9.53,9.077,15.871,9.882c11.307,1.436,22.767-1.668,33.699-6.909
	c-0.353,0.495-0.703,0.993-1.047,1.495c-8.003,11.658-13.564,25.642-12.239,39.72c1.37,14.566,12.757,31.243,28.756,31.391
	c11.088,0.102,19.167-10.379,29.987-9.428c6.428,0.565,11.553,5.433,17.991,5.937c6.543,0.512,12.799-3.062,16.923-7.946
	c3.547-4.201,6.227-9.007,8.225-14.206c2.602,5.01,5.922,9.593,10.077,13.449c10.723,9.952,30.325,14.807,42.357,4.261
	c8.339-7.309,7.384-20.507,16.088-27.005c5.171-3.86,12.236-3.642,17.374-7.555c5.221-3.976,7.508-10.809,7.33-17.198
	c-0.169-6.081-1.622-12.007-3.983-17.731c7.468,2.535,15.307,3.693,23.111,2.722
	C828.651,1130.592,844.979,1118.708,844.646,1102.712z"/>
<path style="fill:#CF285C;" d="M798.254,1091.417c-0.164-7.88-7.783-13.397-7.339-21.105c0.265-4.579,3.614-8.324,3.834-12.91
	c0.224-4.66-2.449-9.029-6.007-11.854c-7.798-6.193-18.265-8.301-28.985-8.572c7.598-4.068,14.373-9.847,18.151-17.525
	c4.591-9.331,3.902-23.669-5.733-29.713c-6.677-4.188-15.47-0.848-21.669-5.45c-3.683-2.735-4.974-7.59-8.686-10.291
	c-3.772-2.745-8.891-2.909-13.206-1.486c-2.548,0.841-4.956,2.006-7.232,3.433c-0.184-3.558-0.851-7.066-2.12-10.418
	c-3.683-9.726-14.63-19.012-25.623-16.099c-7.619,2.019-11.182,10.724-18.778,12.111c-4.513,0.824-8.941-1.548-13.45-0.68
	c-4.58,0.881-8.196,4.51-10.102,8.634c-1.851,4.004-2.799,8.328-3.085,12.814c-4.149-4.476-9.097-8.121-14.822-10.155
	c-9.799-3.482-23.962-1.139-28.851,9.128c-3.389,7.117,0.946,15.465-2.91,22.154c-2.29,3.974-6.964,5.818-9.218,9.817
	c-2.291,4.064-1.862,9.167,0.05,13.289c4.22,9.095,12.715,15.704,22.254,20.769l-0.826-0.027
	c-10.048-0.268-20.539,1.819-28.426,8.05c-8.16,6.447-13.708,19.686-7.612,29.288c4.225,6.654,13.599,7.423,17.214,14.246
	c2.148,4.053,1.224,8.991,3.412,13.027c2.223,4.102,6.774,6.452,11.281,7.025c8.037,1.021,16.183-1.186,23.954-4.911l-0.744,1.063
	c-5.689,8.286-9.641,18.227-8.7,28.234c0.974,10.354,9.068,22.209,20.441,22.314c7.882,0.072,13.625-7.378,21.316-6.702
	c4.57,0.402,8.211,3.862,12.789,4.22c4.651,0.364,9.098-2.177,12.029-5.648c2.522-2.986,4.427-6.402,5.847-10.097
	c1.849,3.561,4.209,6.818,7.163,9.56c7.623,7.074,21.556,10.526,30.109,3.029c5.927-5.196,5.249-14.578,11.436-19.196
	c3.675-2.745,8.697-2.589,12.35-5.37c3.711-2.826,5.336-7.684,5.211-12.226c-0.12-4.323-1.153-8.535-2.831-12.603
	c5.308,1.802,10.881,2.625,16.428,1.935C786.885,1111.235,798.491,1102.788,798.254,1091.417z"/>
<path style="fill:#DC316E;" d="M747.763,1067.62c0.157-2.728,2.152-4.958,2.284-7.688c0.134-2.776-1.458-5.377-3.578-7.06
	c-4.644-3.688-10.879-4.944-17.263-5.105c4.526-2.423,8.56-5.865,10.81-10.438c2.734-5.557,2.324-14.097-3.414-17.696
	c-3.977-2.495-9.214-0.505-12.906-3.246c-2.193-1.628-2.963-4.52-5.173-6.129c-2.247-1.635-5.295-1.732-7.865-0.885
	c-1.518,0.501-2.951,1.195-4.307,2.044c-0.109-2.118-0.506-4.208-1.263-6.204c-2.193-5.792-8.713-11.323-15.26-9.588
	c-4.537,1.202-6.659,6.387-11.183,7.213c-2.688,0.49-5.326-0.922-8.01-0.405c-2.728,0.525-4.881,2.686-6.017,5.143
	c-1.103,2.384-1.667,4.96-1.837,7.631c-2.471-2.666-5.418-4.837-8.828-6.048c-5.836-2.073-14.271-0.679-17.183,5.437
	c-2.018,4.238,0.563,9.21-1.733,13.194c-1.364,2.367-4.147,3.465-5.49,5.847c-1.364,2.42-1.109,5.46,0.03,7.915
	c2.513,5.417,7.573,9.353,13.254,12.369l-0.492-0.016c-5.984-0.16-12.233,1.083-16.929,4.794c-4.86,3.84-8.164,11.725-4.534,17.443
	c2.516,3.963,8.1,4.421,10.253,8.484c1.279,2.414,0.729,5.355,2.032,7.759c1.324,2.443,4.034,3.843,6.719,4.184
	c4.786,0.608,9.638-0.706,14.266-2.925l-0.443,0.633c-3.388,4.935-5.742,10.856-5.182,16.816c0.58,6.166,5.401,13.227,12.174,13.289
	c4.694,0.043,8.114-4.393,12.694-3.991c2.722,0.239,4.891,2.3,7.617,2.513c2.77,0.217,5.419-1.296,7.164-3.364
	c1.502-1.779,2.636-3.813,3.482-6.014c1.102,2.121,2.507,4.061,4.266,5.694c4.54,4.213,12.838,6.268,17.932,1.803
	c3.53-3.094,3.126-8.681,6.811-11.432c2.189-1.634,5.18-1.542,7.355-3.198c2.211-1.683,3.179-4.576,3.104-7.281
	c-0.071-2.574-0.687-5.083-1.686-7.506c3.162,1.073,6.48,1.564,9.784,1.152c6.146-0.765,13.058-5.796,12.917-12.568
	C752.036,1075.496,747.498,1072.21,747.763,1067.62z"/>
<path style="fill:#771425;" d="M740.17,1075.541c-8.244-4.555-17.076-7.873-26.226-9.991c0-0.015-0.008-0.027-0.008-0.042
	c0.073-1.275,1.006-2.318,1.068-3.596c0.062-1.298-0.682-2.515-1.673-3.302c-2.173-1.725-5.088-2.312-8.074-2.387
	c2.116-1.133,4.004-2.743,5.056-4.882c1.133-2.304,1.001-5.617-0.888-7.532c7.481-4.169,15.351-7.556,23.492-9.99
	c1.033-0.309-0.269-3.995-1.611-3.594c-9.389,2.807-18.417,6.876-26.894,11.976c-0.616-0.103-1.21-0.266-1.731-0.653
	c-1.026-0.762-1.385-2.114-2.42-2.867c-1.05-0.764-2.477-0.81-3.678-0.414c-0.71,0.234-1.38,0.559-2.014,0.956
	c-0.051-0.991-0.238-1.968-0.591-2.902c-1.026-2.709-4.075-5.295-7.137-4.484c-1.592,0.422-2.549,1.892-3.821,2.763
	c-1.092-7.255-1.638-14.559-1.48-21.826c0.024-1.125-3.897-1.117-3.929,0.345c-0.159,7.292,0.393,14.623,1.493,21.904
	c-0.412-0.053-0.824-0.082-1.239-0.002c-1.276,0.246-2.283,1.256-2.814,2.405c-0.515,1.115-0.779,2.319-0.859,3.569
	c-1.156-1.246-2.534-2.262-4.129-2.828c-2.729-0.97-6.674-0.318-8.036,2.542c-0.19,0.398-0.248,0.816-0.3,1.236
	c-7.833-4.234-15.084-9.476-21.531-15.658c-0.743-0.713-3.252,2.596-2.287,3.522c6.963,6.676,14.885,12.217,23.448,16.609
	c-0.059,0.152-0.056,0.316-0.141,0.462c-0.638,1.107-1.939,1.62-2.567,2.734c-0.638,1.132-0.518,2.553,0.014,3.701
	c1.175,2.534,3.542,4.375,6.198,5.785l-0.229-0.008c-2.799-0.075-5.721,0.506-7.918,2.242c-1.823,1.441-3.147,4.093-2.735,6.469
	c-9.045,1.745-18.286,2.306-27.503,1.633c-1.085-0.079-0.897,4.305,0.513,4.407c10.153,0.74,20.322-0.087,30.238-2.277
	c0.862,0.491,1.691,1.004,2.162,1.893c0.598,1.129,0.341,2.505,0.95,3.629c0.619,1.142,1.887,1.797,3.142,1.957
	c2.239,0.284,4.508-0.33,6.672-1.368l-0.207,0.296c-1.585,2.308-2.686,5.077-2.423,7.864c0.246,2.619,2.137,5.556,4.854,6.1
	c-3.284,7.631-7.456,14.845-12.467,21.453c-0.61,0.804,2.685,2.877,3.477,1.832c5.683-7.493,10.241-15.784,13.687-24.565
	c0.662-0.298,1.335-0.537,2.08-0.471c1.272,0.112,2.287,1.076,3.562,1.175c1.295,0.102,2.534-0.606,3.35-1.573
	c0.702-0.832,1.233-1.783,1.629-2.812c0.515,0.992,1.172,1.899,1.995,2.663c2.123,1.971,6.004,2.932,8.387,0.844
	c1.262-1.106,1.462-2.884,2.249-4.24c4.466,7.586,7.895,15.738,10.06,24.295c0.236,0.933,3.865-0.447,3.557-1.659
	c-2.204-8.712-5.723-17.002-10.311-24.703c0.377-0.134,0.745-0.288,1.069-0.535c1.034-0.787,1.487-2.14,1.451-3.405
	c-0.033-1.204-0.321-2.377-0.788-3.511c1.478,0.502,3.03,0.731,4.576,0.539c2.874-0.358,6.107-2.71,6.041-5.878
	c-0.007-0.349-0.131-0.659-0.226-0.979c8.026,2.129,15.786,5.185,23.08,9.215C739.756,1080.132,741.368,1076.203,740.17,1075.541z"
	/>
<path style="fill:#FFF0C5;" d="M668.996,1052.22c0.816,0.466,1.999-0.072,2.643-1.2c0.644-1.129,0.504-2.42-0.312-2.886
	c-0.816-0.465-1.999,0.072-2.643,1.2C668.04,1050.463,668.18,1051.755,668.996,1052.22z"/>
<path style="fill:#FFF0C5;" d="M677.214,1051.616c0.937-0.069,1.619-1.174,1.524-2.47c-0.095-1.295-0.932-2.289-1.868-2.221
	c-0.937,0.069-1.619,1.175-1.524,2.47C675.441,1050.69,676.278,1051.685,677.214,1051.616z"/>
<path style="fill:#FFF0C5;" d="M683.935,1058.312c-0.761-0.551-1.995-0.145-2.757,0.906c-0.762,1.052-0.763,2.351-0.003,2.903
	c0.761,0.551,1.995,0.145,2.758-0.907C684.694,1060.162,684.695,1058.862,683.935,1058.312z"/>
<path style="fill:#FFF0C5;" d="M668.135,1068.066c-0.762,1.052-0.763,2.351-0.003,2.903c0.76,0.551,1.995,0.145,2.757-0.906
	c0.762-1.052,0.763-2.352,0.003-2.903C670.132,1066.609,668.898,1067.015,668.135,1068.066z"/>
<path style="fill:#FFF0C5;" d="M672.367,1063.264c0.816,0.466,1.998-0.072,2.642-1.2c0.644-1.129,0.504-2.42-0.312-2.886
	c-0.816-0.466-1.999,0.072-2.642,1.2C671.411,1061.507,671.551,1062.798,672.367,1063.264z"/>
<path style="fill:#FFF0C5;" d="M683.89,1052.422c-0.879,0.331-1.219,1.585-0.761,2.8c0.459,1.215,1.543,1.932,2.422,1.6
	c0.879-0.332,1.219-1.585,0.761-2.801C685.853,1052.806,684.769,1052.09,683.89,1052.422z"/>
<path style="fill:#FFF0C5;" d="M680.086,1072.247c-0.879,0.332-1.219,1.586-0.761,2.801c0.458,1.215,1.543,1.932,2.421,1.6
	c0.879-0.331,1.22-1.586,0.761-2.801C682.049,1072.633,680.965,1071.916,680.086,1072.247z"/>
<path style="fill:#FFF0C5;" d="M670.177,1055.29c-1.128-0.644-2.42-0.504-2.886,0.312c-0.465,0.816,0.072,1.999,1.2,2.643
	c1.128,0.644,2.42,0.504,2.886-0.312C671.843,1057.117,671.305,1055.933,670.177,1055.29z"/>
<path style="fill:#FFF0C5;" d="M677.983,1057.508c0.756-0.557,0.744-1.857-0.026-2.902c-0.771-1.046-2.009-1.441-2.764-0.885
	c-0.756,0.557-0.744,1.857,0.026,2.903C675.989,1057.67,677.227,1058.066,677.983,1057.508z"/>
<path style="fill:#FFF0C5;" d="M675.519,1074.298c0.756-0.557,0.744-1.857-0.026-2.902c-0.771-1.046-2.008-1.442-2.764-0.884
	c-0.756,0.557-0.744,1.856,0.026,2.902C673.525,1074.46,674.763,1074.856,675.519,1074.298z"/>
<path style="fill:#FFF0C5;" d="M667.982,1065.014c0.756-0.557,0.744-1.857-0.026-2.903c-0.77-1.045-2.008-1.441-2.764-0.884
	c-0.756,0.557-0.744,1.857,0.026,2.903C665.988,1065.175,667.225,1065.571,667.982,1065.014z"/>
<path style="fill:#FFF0C5;" d="M681.965,1050.094c1.128,0.644,2.42,0.504,2.886-0.312c0.465-0.816-0.072-1.999-1.2-2.642
	c-1.128-0.644-2.42-0.504-2.886,0.312C680.299,1048.268,680.837,1049.451,681.965,1050.094z"/>
<path style="fill:#FFF0C5;" d="M676.718,1064.868c-0.166,1.288,0.456,2.43,1.388,2.549c0.931,0.12,1.821-0.828,1.986-2.116
	c0.165-1.288-0.456-2.43-1.387-2.549C677.773,1062.633,676.883,1063.58,676.718,1064.868z"/>
<path style="fill:#FFF0C5;" d="M701.849,1072.509c0.644-1.129,0.504-2.42-0.312-2.886c-0.816-0.465-1.999,0.072-2.643,1.2
	c-0.643,1.129-0.504,2.421,0.312,2.886C700.022,1074.174,701.206,1073.637,701.849,1072.509z"/>
<path style="fill:#FFF0C5;" d="M693.319,1070.227c-0.936,0.069-1.619,1.175-1.524,2.47c0.095,1.296,0.931,2.29,1.868,2.221
	c0.937-0.069,1.619-1.175,1.524-2.47C695.092,1071.153,694.256,1070.159,693.319,1070.227z"/>
<path style="fill:#FFF0C5;" d="M702.401,1050.875c-0.761-0.551-1.995-0.145-2.758,0.906c-0.762,1.052-0.763,2.351-0.003,2.903
	c0.76,0.551,1.995,0.145,2.757-0.906C703.16,1052.725,703.161,1051.426,702.401,1050.875z"/>
<path style="fill:#FFF0C5;" d="M695.524,1059.78c-0.644,1.128-0.504,2.42,0.312,2.886c0.816,0.465,1.998-0.072,2.643-1.2
	c0.644-1.128,0.504-2.42-0.312-2.886C697.35,1058.114,696.167,1058.651,695.524,1059.78z"/>
<path style="fill:#FFF0C5;" d="M686.661,1080.43c-1.256-0.33-2.468,0.14-2.707,1.048c-0.239,0.909,0.587,1.912,1.843,2.242
	c1.257,0.33,2.468-0.14,2.707-1.048C688.743,1081.764,687.917,1080.76,686.661,1080.43z"/>
<path style="fill:#FFF0C5;" d="M690.448,1049.596c0.878-0.331,1.22-1.586,0.761-2.801s-1.543-1.932-2.421-1.6
	c-0.879,0.331-1.22,1.586-0.761,2.801C688.484,1049.211,689.568,1049.927,690.448,1049.596z"/>
<path style="fill:#FFF0C5;" d="M702.197,1063.699c-1.052-0.762-2.352-0.763-2.903-0.003c-0.551,0.761-0.145,1.995,0.906,2.757
	c1.052,0.762,2.351,0.763,2.903,0.002C703.654,1065.696,703.248,1064.462,702.197,1063.699z"/>
<path style="fill:#FFF0C5;" d="M692.551,1064.335c-0.756,0.557-0.744,1.856,0.026,2.902c0.77,1.046,2.008,1.441,2.764,0.884
	c0.756-0.557,0.744-1.856-0.026-2.902C694.544,1064.174,693.307,1063.778,692.551,1064.335z"/>
<path style="fill:#FFF0C5;" d="M697.805,1051.332c0.756-0.557,0.744-1.857-0.026-2.902c-0.771-1.045-2.008-1.441-2.764-0.884
	c-0.756,0.557-0.744,1.856,0.026,2.902C695.812,1051.493,697.049,1051.889,697.805,1051.332z"/>
<path style="fill:#FFF0C5;" d="M702.551,1056.83c-0.756,0.557-0.744,1.856,0.026,2.902c0.771,1.046,2.009,1.441,2.764,0.884
	c0.756-0.557,0.744-1.856-0.026-2.902C704.545,1056.668,703.308,1056.273,702.551,1056.83z"/>
<path style="fill:#FFF0C5;" d="M693.563,1077.658c-0.909-0.239-1.912,0.587-2.242,1.843c-0.33,1.256,0.14,2.468,1.048,2.707
	c0.909,0.238,1.912-0.587,2.242-1.843C694.941,1079.108,694.471,1077.897,693.563,1077.658z"/>
<path style="fill:#FFF0C5;" d="M688.569,1071.749c-1.128-0.644-2.42-0.504-2.886,0.312c-0.466,0.816,0.072,1.999,1.2,2.643
	c1.128,0.644,2.42,0.504,2.885-0.312C690.234,1073.576,689.697,1072.393,688.569,1071.749z"/>
<path style="fill:#FFF0C5;" d="M690.441,1056.542c-0.165,1.288,0.456,2.43,1.387,2.549c0.932,0.12,1.821-0.828,1.986-2.116
	c0.166-1.288-0.456-2.43-1.387-2.549C691.496,1054.306,690.607,1055.254,690.441,1056.542z"/>
<path style="fill:#FFF0C5;" d="M685.177,1064.225c-0.165,1.289,0.456,2.43,1.388,2.549c0.931,0.12,1.821-0.828,1.986-2.116
	c0.166-1.288-0.456-2.43-1.387-2.549C686.232,1061.99,685.343,1062.937,685.177,1064.225z"/>
<path style="fill:#AD173A;" d="M1428.972,1211.411c-0.133-6.39-2.651-12.023-5.593-17.477c-4.536-8.408-10.089-16.385-9.533-26.021
	c0.544-9.438,7.447-17.156,7.902-26.607c0.462-9.603-5.047-18.608-12.381-24.432c-16.073-12.765-37.646-17.109-59.741-17.666
	c15.661-8.383,29.624-20.295,37.41-36.12c9.462-19.232,8.042-48.784-11.816-61.239c-13.762-8.633-31.885-1.747-44.661-11.233
	c-7.591-5.636-10.252-15.643-17.903-21.21c-7.774-5.658-18.325-5.995-27.218-3.062c-5.253,1.733-10.215,4.135-14.906,7.075
	c-0.379-7.333-1.753-14.564-4.37-21.472c-7.591-20.044-30.152-39.183-52.811-33.18c-15.703,4.161-23.047,22.103-38.701,24.962
	c-9.3,1.698-18.429-3.189-27.72-1.401c-9.441,1.817-16.892,9.295-20.821,17.796c-3.815,8.253-5.768,17.165-6.357,26.41
	c-8.552-9.225-18.751-16.739-30.549-20.931c-17.911-6.364-42.867-3.259-55.321,12.281c-1.589,1.982-3.003,4.139-4.143,6.534
	c-6.984,14.667,1.95,31.873-5.996,45.661c-4.721,8.191-14.353,11.991-18.999,20.234c-4.721,8.376-3.838,18.895,0.104,27.389
	c8.698,18.746,26.207,32.366,45.867,42.805c-0.567-0.022-1.135-0.041-1.703-0.056c-20.709-0.553-42.333,3.749-58.588,16.593
	c-16.818,13.287-28.253,40.574-15.689,60.363c1.961,3.088,4.475,5.542,7.255,7.681c9.567,7.361,22.451,10.784,28.224,21.679
	c4.426,8.354,2.522,18.532,7.032,26.85c4.583,8.452,13.961,13.298,23.251,14.478c3.256,0.414,6.522,0.501,9.789,0.427
	c13.349-0.302,26.715-4.381,39.581-10.551c-0.517,0.726-1.029,1.455-1.534,2.191c-11.725,17.079-19.871,37.566-17.931,58.192
	c1.146,12.191,7.096,25.373,16.346,34.491c2.349,2.316,4.924,4.339,7.677,6.045c5.38,3.335,11.459,5.392,18.107,5.454
	c16.244,0.15,28.081-15.205,43.932-13.812c9.294,0.816,16.734,7.746,25.993,8.639c0.124,0.012,0.24,0.048,0.365,0.058
	c9.585,0.75,18.752-4.486,24.793-11.641c5.197-6.155,9.123-13.195,12.05-20.812c3.812,7.34,8.676,14.054,14.764,19.704
	c15.71,14.579,44.428,21.693,62.056,6.243c2.927-2.565,5.06-5.633,6.806-8.935c5.541-10.482,7.067-23.391,16.764-30.629
	c7.575-5.656,17.926-5.336,25.454-11.068c7.65-5.825,10.999-15.835,10.739-25.197c-0.247-8.909-2.376-17.59-5.836-25.977
	c10.94,3.715,22.425,5.412,33.859,3.988C1405.539,1252.256,1429.461,1234.847,1428.972,1211.411z"/>
<path style="fill:#C01C49;" d="M1379.13,1199.276c-0.267-12.797-12.64-21.756-11.918-34.273c0.429-7.437,5.868-13.518,6.226-20.965
	c0.364-7.567-3.977-14.662-9.755-19.251c-12.665-10.057-29.663-13.481-47.072-13.919c12.34-6.606,23.342-15.991,29.477-28.461
	c7.455-15.153,6.336-38.438-9.31-48.253c-10.844-6.802-25.124-1.376-35.191-8.851c-5.98-4.44-8.078-12.325-14.106-16.712
	c-6.125-4.458-14.439-4.724-21.446-2.413c-4.139,1.365-8.048,3.258-11.745,5.575c-0.299-5.778-1.382-11.476-3.443-16.919
	c-5.981-15.794-23.758-30.874-41.612-26.143c-12.373,3.279-18.16,17.416-30.495,19.668c-7.328,1.338-14.521-2.513-21.842-1.104
	c-7.439,1.432-13.31,7.324-16.406,14.022c-3.006,6.503-4.546,13.525-5.009,20.81c-6.738-7.269-14.774-13.189-24.071-16.492
	c-15.914-5.654-38.913-1.851-46.854,14.825c-5.502,11.557,1.536,25.114-4.725,35.977c-3.719,6.454-11.309,9.449-14.97,15.943
	c-3.72,6.6-3.024,14.888,0.082,21.582c6.853,14.771,20.65,25.503,36.141,33.727l-1.342-0.044
	c-16.318-0.436-33.356,2.954-46.163,13.073c-13.251,10.47-22.262,31.97-12.362,47.563c6.86,10.806,22.085,12.055,27.956,23.134
	c3.487,6.582,1.988,14.602,5.541,21.156c3.611,6.66,11,10.478,18.32,11.407c13.052,1.658,26.282-1.926,38.901-7.976
	c-0.408,0.571-0.811,1.146-1.209,1.726c-9.238,13.457-15.657,29.6-14.129,45.852c1.582,16.813,14.727,36.066,33.195,36.237
	c12.8,0.117,22.126-11.981,34.616-10.883c7.421,0.651,13.336,6.272,20.769,6.853c7.552,0.591,14.775-3.534,19.535-9.172
	c4.095-4.849,7.189-10.397,9.495-16.399c3.004,5.784,6.836,11.074,11.634,15.526c12.379,11.488,35.007,17.093,48.896,4.919
	c9.626-8.437,8.524-23.673,18.572-31.173c5.969-4.456,14.124-4.204,20.056-8.721c6.027-4.589,8.667-12.478,8.462-19.853
	c-0.195-7.02-1.872-13.86-4.598-20.468c8.62,2.927,17.67,4.264,26.679,3.143C1360.666,1231.459,1379.515,1217.742,1379.13,1199.276z
	"/>
<path style="fill:#CF285C;" d="M1325.577,1186.238c-0.19-9.097-8.985-15.465-8.472-24.363c0.305-5.286,4.171-9.609,4.426-14.902
	c0.259-5.379-2.827-10.423-6.935-13.684c-9.002-7.149-21.085-9.583-33.46-9.895c8.771-4.696,16.592-11.367,20.953-20.231
	c5.3-10.772,4.504-27.323-6.617-34.3c-7.708-4.835-17.859-0.979-25.015-6.292c-4.251-3.156-5.742-8.761-10.027-11.88
	c-4.354-3.169-10.263-3.358-15.245-1.715c-2.942,0.97-5.721,2.316-8.349,3.963c-0.212-4.107-0.982-8.157-2.448-12.026
	c-4.251-11.226-16.888-21.946-29.578-18.583c-8.796,2.331-12.909,12.38-21.676,13.981c-5.209,0.951-10.322-1.787-15.526-0.785
	c-5.288,1.017-9.461,5.206-11.662,9.967c-2.136,4.622-3.231,9.614-3.56,14.792c-4.789-5.167-10.502-9.375-17.11-11.723
	c-11.312-4.019-27.661-1.316-33.305,10.538c-3.911,8.215,1.092,17.852-3.359,25.574c-2.644,4.588-8.038,6.716-10.641,11.334
	c-2.644,4.691-2.149,10.582,0.058,15.34c4.871,10.499,14.678,18.128,25.689,23.975l-0.953-0.032
	c-11.599-0.31-23.71,2.1-32.814,9.294c-9.419,7.442-15.824,22.725-8.788,33.809c4.877,7.681,15.699,8.569,19.872,16.444
	c2.479,4.679,1.413,10.379,3.939,15.039c2.566,4.734,7.819,7.448,13.022,8.109c9.278,1.179,18.682-1.369,27.652-5.67l-0.859,1.227
	c-6.567,9.566-11.13,21.041-10.043,32.593c1.124,11.952,10.468,25.637,23.596,25.758c9.098,0.083,15.728-8.516,24.606-7.736
	c5.275,0.463,9.479,4.458,14.763,4.871c5.369,0.42,10.502-2.512,13.887-6.52c2.91-3.447,5.109-7.39,6.749-11.657
	c2.135,4.111,4.859,7.872,8.269,11.036c8.799,8.166,24.884,12.15,34.757,3.497c6.842-5.998,6.059-16.828,13.201-22.16
	c4.243-3.167,10.039-2.988,14.256-6.199c4.284-3.262,6.16-8.87,6.015-14.113c-0.139-4.99-1.332-9.852-3.269-14.549
	c6.128,2.08,12.56,3.031,18.964,2.234C1312.452,1209.115,1325.851,1199.364,1325.577,1186.238z"/>
<path style="fill:#DC316E;" d="M1272.338,1173.276c-0.113-5.418-5.351-9.21-5.046-14.51c0.182-3.149,2.485-5.723,2.636-8.875
	c0.154-3.203-1.684-6.207-4.13-8.15c-5.362-4.258-12.558-5.708-19.928-5.893c5.224-2.796,9.882-6.77,12.479-12.048
	c3.156-6.416,2.682-16.273-3.941-20.428c-4.591-2.879-10.636-0.583-14.898-3.747c-2.532-1.88-3.42-5.218-5.972-7.075
	c-2.593-1.887-6.113-2-9.079-1.021c-1.752,0.578-3.407,1.379-4.973,2.36c-0.126-2.446-0.585-4.858-1.458-7.163
	c-2.532-6.686-10.058-13.071-17.616-11.068c-5.238,1.388-7.688,7.373-12.909,8.327c-3.103,0.566-6.147-1.064-9.247-0.468
	c-3.149,0.606-5.635,3.101-6.945,5.936c-1.273,2.752-1.924,5.725-2.12,8.81c-2.853-3.077-6.255-5.584-10.191-6.982
	c-6.737-2.394-16.474-0.783-19.835,6.276c-2.33,4.893,0.65,10.632-2.001,15.232c-1.574,2.732-4.787,4-6.338,6.75
	c-1.575,2.794-1.28,6.303,0.034,9.136c2.902,6.253,8.742,10.796,15.3,14.279l-0.568-0.019c-6.908-0.185-14.121,1.251-19.543,5.535
	c-5.61,4.432-9.424,13.534-5.234,20.136c2.905,4.574,9.35,5.103,11.835,9.793c1.476,2.787,0.842,6.182,2.346,8.957
	c1.529,2.819,4.657,4.436,7.756,4.829c5.525,0.701,11.126-0.816,16.468-3.377l-0.511,0.73c-3.911,5.697-6.629,12.531-5.981,19.411
	c0.669,7.119,6.234,15.269,14.053,15.341c5.419,0.049,9.367-5.072,14.655-4.607c3.141,0.276,5.646,2.655,8.792,2.901
	c3.198,0.25,6.255-1.496,8.271-3.883c1.733-2.053,3.043-4.402,4.019-6.943c1.272,2.449,2.894,4.688,4.925,6.573
	c5.241,4.863,14.82,7.237,20.7,2.082c4.074-3.572,3.609-10.022,7.862-13.198c2.528-1.886,5.98-1.78,8.491-3.692
	c2.551-1.943,3.669-5.282,3.582-8.405c-0.082-2.971-0.792-5.868-1.946-8.665c3.649,1.239,7.48,1.805,11.294,1.33
	C1264.521,1186.901,1272.5,1181.094,1272.338,1173.276z"/>
<path style="fill:#771425;" d="M1258.527,1167.911c-9.517-5.257-19.713-9.089-30.275-11.533c0.001-0.018-0.009-0.032-0.008-0.049
	c0.085-1.472,1.162-2.676,1.233-4.15c0.072-1.498-0.787-2.903-1.931-3.812c-2.508-1.992-5.873-2.669-9.32-2.756
	c2.443-1.308,4.621-3.167,5.836-5.636c1.309-2.66,1.155-6.485-1.025-8.695c8.636-4.812,17.721-8.723,27.118-11.533
	c1.192-0.356-0.31-4.612-1.86-4.148c-10.839,3.24-21.26,7.938-31.046,13.824c-0.711-0.118-1.397-0.307-1.998-0.753
	c-1.184-0.879-1.6-2.441-2.793-3.309c-1.213-0.883-2.859-0.935-4.246-0.478c-0.82,0.27-1.594,0.646-2.325,1.104
	c-0.059-1.144-0.273-2.272-0.682-3.35c-1.184-3.127-4.704-6.113-8.238-5.176c-1.838,0.487-2.943,2.185-4.411,3.19
	c-1.26-8.375-1.891-16.807-1.708-25.196c0.028-1.3-4.499-1.29-4.536,0.399c-0.184,8.418,0.453,16.881,1.723,25.285
	c-0.476-0.061-0.951-0.094-1.431-0.002c-1.473,0.283-2.635,1.45-3.248,2.776c-0.595,1.287-0.9,2.678-0.992,4.12
	c-1.334-1.439-2.925-2.612-4.766-3.266c-3.151-1.119-7.705-0.366-9.277,2.936c-0.219,0.459-0.286,0.943-0.347,1.426
	c-9.043-4.887-17.412-10.938-24.854-18.075c-0.858-0.823-3.754,2.996-2.64,4.066c8.037,7.708,17.183,14.103,27.067,19.173
	c-0.067,0.175-0.065,0.364-0.162,0.533c-0.736,1.278-2.239,1.871-2.964,3.156c-0.736,1.307-0.599,2.948,0.016,4.273
	c1.357,2.925,4.088,5.049,7.155,6.678l-0.266-0.009c-3.23-0.086-6.604,0.585-9.14,2.589c-2.105,1.663-3.632,4.725-3.157,7.468
	c-10.441,2.014-21.109,2.661-31.748,1.885c-1.252-0.091-1.036,4.969,0.592,5.088c11.721,0.855,23.459-0.1,34.906-2.628
	c0.995,0.568,1.952,1.159,2.495,2.185c0.69,1.303,0.394,2.891,1.097,4.189c0.715,1.319,2.178,2.074,3.627,2.259
	c2.584,0.328,5.204-0.381,7.702-1.579l-0.239,0.342c-1.829,2.665-3.1,5.861-2.798,9.078c0.285,3.023,2.468,6.413,5.603,7.041
	c-3.79,8.81-8.607,17.137-14.392,24.765c-0.704,0.928,3.1,3.322,4.015,2.115c6.561-8.65,11.823-18.22,15.8-28.357
	c0.764-0.345,1.541-0.62,2.401-0.544c1.469,0.129,2.64,1.242,4.112,1.358c1.496,0.117,2.926-0.701,3.868-1.817
	c0.811-0.96,1.423-2.058,1.88-3.247c0.595,1.145,1.354,2.193,2.303,3.074c2.451,2.274,6.931,3.384,9.681,0.974
	c1.457-1.277,1.688-3.329,2.597-4.894c5.156,8.757,9.113,18.167,11.613,28.044c0.272,1.077,4.461-0.516,4.107-1.915
	c-2.544-10.056-6.607-19.626-11.902-28.516c0.436-0.154,0.859-0.333,1.234-0.618c1.193-0.908,1.716-2.471,1.675-3.931
	c-0.038-1.39-0.371-2.744-0.91-4.053c1.706,0.58,3.498,0.844,5.282,0.623c3.318-0.414,7.05-3.129,6.974-6.786
	c-0.008-0.402-0.152-0.761-0.261-1.13c9.265,2.458,18.223,5.986,26.644,10.638C1258.05,1173.21,1259.909,1168.675,1258.527,1167.911
	z"/>
<path style="fill:#FFF0C5;" d="M1176.365,1140.99c0.942,0.537,2.307-0.083,3.05-1.385c0.743-1.302,0.582-2.794-0.36-3.331
	c-0.941-0.537-2.307,0.083-3.05,1.385C1175.262,1138.961,1175.423,1140.453,1176.365,1140.99z"/>
<path style="fill:#FFF0C5;" d="M1185.853,1140.293c1.081-0.079,1.869-1.357,1.759-2.852c-0.11-1.495-1.076-2.643-2.157-2.564
	c-1.082,0.08-1.869,1.356-1.759,2.852C1183.806,1139.224,1184.771,1140.372,1185.853,1140.293z"/>
<path style="fill:#FFF0C5;" d="M1190.427,1149.069c-0.88,1.214-0.881,2.714-0.004,3.35c0.879,0.636,2.303,0.168,3.183-1.047
	c0.88-1.214,0.882-2.714,0.003-3.35C1192.732,1147.386,1191.307,1147.854,1190.427,1149.069z"/>
<path style="fill:#FFF0C5;" d="M1175.369,1162.633c0.878,0.636,2.303,0.168,3.183-1.047s0.881-2.714,0.003-3.35
	c-0.878-0.637-2.303-0.168-3.183,1.046C1174.493,1160.496,1174.491,1161.997,1175.369,1162.633z"/>
<path style="fill:#FFF0C5;" d="M1180.256,1153.739c0.942,0.537,2.308-0.083,3.051-1.386c0.743-1.302,0.582-2.793-0.36-3.331
	c-0.942-0.537-2.307,0.083-3.05,1.385C1179.154,1151.71,1179.315,1153.201,1180.256,1153.739z"/>
<path style="fill:#FFF0C5;" d="M1193.559,1141.222c-1.015,0.383-1.408,1.83-0.879,3.233c0.529,1.403,1.78,2.23,2.795,1.847
	c1.014-0.383,1.408-1.83,0.879-3.233C1195.825,1141.667,1194.573,1140.84,1193.559,1141.222z"/>
<path style="fill:#FFF0C5;" d="M1188.289,1167.342c0.529,1.403,1.78,2.23,2.794,1.847c1.015-0.383,1.408-1.83,0.879-3.233
	c-0.529-1.403-1.781-2.231-2.795-1.847C1188.153,1164.491,1187.76,1165.939,1188.289,1167.342z"/>
<path style="fill:#FFF0C5;" d="M1175.784,1147.944c1.302,0.743,2.794,0.582,3.331-0.36c0.538-0.942-0.083-2.308-1.385-3.051
	c-1.303-0.743-2.794-0.582-3.331,0.36C1173.861,1145.835,1174.481,1147.201,1175.784,1147.944z"/>
<path style="fill:#FFF0C5;" d="M1186.739,1147.094c0.873-0.643,0.859-2.143-0.031-3.35c-0.889-1.207-2.318-1.664-3.191-1.021
	s-0.859,2.143,0.031,3.35C1184.438,1147.281,1185.867,1147.738,1186.739,1147.094z"/>
<path style="fill:#FFF0C5;" d="M1183.895,1166.476c0.873-0.644,0.86-2.143-0.03-3.35c-0.89-1.207-2.318-1.664-3.191-1.021
	c-0.873,0.643-0.859,2.143,0.03,3.35C1181.594,1166.663,1183.022,1167.119,1183.895,1166.476z"/>
<path style="fill:#FFF0C5;" d="M1175.195,1155.759c0.873-0.644,0.859-2.144-0.03-3.351c-0.89-1.207-2.318-1.664-3.191-1.02
	c-0.872,0.643-0.859,2.143,0.031,3.35C1172.893,1155.944,1174.322,1156.402,1175.195,1155.759z"/>
<path style="fill:#FFF0C5;" d="M1191.337,1138.536c1.302,0.743,2.794,0.582,3.331-0.36s-0.083-2.307-1.385-3.05
	c-1.302-0.743-2.793-0.582-3.331,0.36C1189.414,1136.427,1190.034,1137.793,1191.337,1138.536z"/>
<path style="fill:#FFF0C5;" d="M1185.28,1155.591c-0.191,1.487,0.526,2.805,1.601,2.943c1.076,0.138,2.102-0.955,2.293-2.443
	c0.191-1.487-0.526-2.805-1.602-2.943C1186.497,1153.009,1185.47,1154.104,1185.28,1155.591z"/>
<path style="fill:#FFF0C5;" d="M1214.29,1164.41c0.743-1.302,0.582-2.793-0.36-3.331c-0.942-0.537-2.307,0.083-3.051,1.385
	c-0.743,1.302-0.582,2.793,0.36,3.331C1212.182,1166.333,1213.547,1165.713,1214.29,1164.41z"/>
<path style="fill:#FFF0C5;" d="M1204.443,1161.777c-1.081,0.079-1.868,1.356-1.759,2.852c0.11,1.495,1.076,2.643,2.157,2.563
	c1.082-0.079,1.869-1.356,1.759-2.851C1206.49,1162.845,1205.524,1161.698,1204.443,1161.777z"/>
<path style="fill:#FFF0C5;" d="M1214.926,1139.437c-0.878-0.636-2.302-0.168-3.182,1.047c-0.88,1.214-0.881,2.714-0.003,3.35
	c0.878,0.636,2.303,0.168,3.183-1.047C1215.803,1141.573,1215.805,1140.073,1214.926,1139.437z"/>
<path style="fill:#FFF0C5;" d="M1206.988,1149.717c-0.743,1.302-0.582,2.793,0.36,3.331c0.942,0.537,2.307-0.083,3.05-1.385
	c0.743-1.303,0.582-2.794-0.36-3.331C1209.097,1147.794,1207.731,1148.415,1206.988,1149.717z"/>
<path style="fill:#FFF0C5;" d="M1196.758,1173.555c-1.45-0.381-2.849,0.161-3.125,1.21c-0.275,1.049,0.677,2.208,2.128,2.588
	c1.45,0.38,2.849-0.161,3.124-1.21C1199.161,1175.094,1198.208,1173.935,1196.758,1173.555z"/>
<path style="fill:#FFF0C5;" d="M1201.129,1137.961c1.014-0.383,1.407-1.83,0.879-3.233c-0.529-1.403-1.781-2.23-2.795-1.847
	c-1.015,0.383-1.408,1.83-0.879,3.233C1198.863,1137.516,1200.114,1138.344,1201.129,1137.961z"/>
<path style="fill:#FFF0C5;" d="M1214.691,1154.241c-1.214-0.88-2.714-0.881-3.35-0.004c-0.637,0.878-0.168,2.303,1.046,3.183
	c1.214,0.88,2.715,0.881,3.351,0.003C1216.374,1156.546,1215.905,1155.121,1214.691,1154.241z"/>
<path style="fill:#FFF0C5;" d="M1203.556,1154.975c-0.873,0.644-0.859,2.143,0.03,3.351c0.89,1.207,2.318,1.664,3.191,1.021
	c0.873-0.644,0.859-2.144-0.03-3.351C1205.858,1154.789,1204.429,1154.332,1203.556,1154.975z"/>
<path style="fill:#FFF0C5;" d="M1209.622,1139.964c0.873-0.643,0.859-2.143-0.03-3.35c-0.89-1.207-2.318-1.664-3.191-1.021
	c-0.873,0.644-0.859,2.144,0.03,3.35C1207.321,1140.151,1208.749,1140.608,1209.622,1139.964z"/>
<path style="fill:#FFF0C5;" d="M1215.101,1146.311c-0.873,0.643-0.859,2.143,0.03,3.351c0.89,1.206,2.318,1.663,3.191,1.02
	c0.873-0.643,0.86-2.143-0.03-3.35C1217.402,1146.125,1215.974,1145.668,1215.101,1146.311z"/>
<path style="fill:#FFF0C5;" d="M1204.724,1170.355c-1.049-0.275-2.207,0.677-2.588,2.127c-0.381,1.45,0.161,2.849,1.21,3.125
	c1.049,0.275,2.207-0.677,2.588-2.128C1206.315,1172.029,1205.773,1170.63,1204.724,1170.355z"/>
<path style="fill:#FFF0C5;" d="M1198.959,1163.534c-1.302-0.743-2.794-0.582-3.331,0.36c-0.537,0.942,0.083,2.307,1.385,3.051
	c1.302,0.743,2.794,0.582,3.331-0.36C1200.882,1165.643,1200.262,1164.277,1198.959,1163.534z"/>
<path style="fill:#FFF0C5;" d="M1201.122,1145.979c-0.191,1.487,0.526,2.804,1.602,2.943c1.076,0.138,2.102-0.956,2.293-2.443
	c0.191-1.487-0.526-2.805-1.602-2.943C1202.339,1143.399,1201.312,1144.492,1201.122,1145.979z"/>
<path style="fill:#FFF0C5;" d="M1195.045,1154.848c-0.191,1.487,0.526,2.805,1.601,2.943c1.076,0.138,2.102-0.956,2.293-2.443
	c0.191-1.487-0.526-2.805-1.601-2.943C1196.262,1152.268,1195.236,1153.361,1195.045,1154.848z"/>
</svg>
